<svg width="1111" height="1085" viewBox="0 0 1111 1085" fill="none" xmlns="http://www.w3.org/2000/svg">
<circle cx="332.129" cy="332.862" r="75.3324" fill="#892A85"/>
<circle cx="955.922" cy="409.898" r="85.5585" fill="#009F44"/>
<circle cx="151.468" cy="403.763" r="81.4681" fill="#E42325"/>
<circle cx="130.334" cy="527.158" r="33.0644" fill="#009F44"/>
<circle cx="240.434" cy="268.437" r="25.2244" fill="#E42325"/>
<circle cx="287.474" cy="155.95" r="25.2244" fill="#E42325"/>
<circle cx="437.799" cy="245.599" r="22.1566" fill="#009F44"/>
<circle cx="518.928" cy="343.088" r="18.7479" fill="#FF8822"/>
<circle cx="561.195" cy="221.738" r="18.7479" fill="#FF8822"/>
<circle cx="581.646" cy="265.369" r="18.7479" fill="#2C4D9C"/>
<circle cx="648.799" cy="335.929" r="22.4975" fill="#2C4D9C"/>
<circle cx="752.082" cy="388.764" r="14.6574" fill="#892A85"/>
<circle cx="845.481" cy="380.583" r="16.0209" fill="#F8BB03"/>
<circle cx="1015.92" cy="491.707" r="11.9305" fill="#892A85"/>
<circle cx="775.602" cy="764.745" r="14.3166" fill="#2C4D9C"/>
<circle cx="887.748" cy="658.734" r="18.7479" fill="#009F44"/>
<circle cx="988.988" cy="525.453" r="21.8157" fill="#F8BB03"/>
<circle cx="845.48" cy="695.548" r="26.9288" fill="#2C4D9C"/>
<circle cx="935.129" cy="525.453" r="25.9062" fill="#892A85"/>
<circle cx="876.5" cy="524.772" r="26.5879" fill="#F8BB03"/>
<circle cx="751.4" cy="557.154" r="14.6574" fill="#F8BB03"/>
<circle cx="824.687" cy="635.214" r="26.5879" fill="#E42325"/>
<circle cx="904.792" cy="608.967" r="26.247" fill="#E42325"/>
<circle cx="960.694" cy="586.469" r="26.247" fill="#2C4D9C"/>
<circle cx="854.003" cy="575.902" r="24.5427" fill="#FF8822"/>
<circle cx="742.538" cy="606.921" r="30.3375" fill="#009F44"/>
<circle cx="798.101" cy="579.993" r="25.9062" fill="#2C4D9C"/>
<circle cx="854.683" cy="468.869" r="21.8157" fill="#892A85"/>
<circle cx="823.664" cy="127.657" r="14.6574" fill="#E42325"/>
<circle cx="860.82" cy="235.032" r="25.9062" fill="#009F44"/>
<circle cx="949.104" cy="220.374" r="43.9723" fill="#892A85"/>
<circle cx="920.812" cy="160.722" r="15.68" fill="#2C4D9C"/>
<circle cx="864.911" cy="167.539" r="35.4505" fill="#F8BB03"/>
<circle cx="959.672" cy="292.98" r="20.4522" fill="#E42325"/>
<circle cx="1005.35" cy="264.347" r="20.4522" fill="#009F44"/>
<circle cx="1021.03" cy="309.341" r="20.4522" fill="#FF8822"/>
<circle cx="785.488" cy="356.041" r="22.8383" fill="#009F44"/>
<circle cx="756.172" cy="278.322" r="21.4748" fill="#E42325"/>
<circle cx="843.776" cy="329.112" r="29.3149" fill="#E42325"/>
<circle cx="810.711" cy="269.46" r="28.2923" fill="#FF8822"/>
<circle cx="898.657" cy="289.23" r="32.3827" fill="#2C4D9C"/>
<circle cx="667.547" cy="150.837" r="18.7479" fill="#F8BB03"/>
<circle cx="682.545" cy="253.78" r="24.8836" fill="#E42325"/>
<circle cx="634.14" cy="283.094" r="24.8836" fill="#892A85"/>
<circle cx="723.107" cy="333.202" r="33.4053" fill="#F8BB03"/>
<circle cx="805.6" cy="423.874" r="33.4053" fill="#2C4D9C"/>
<circle cx="796.396" cy="507.387" r="39.8819" fill="#E42325"/>
<circle cx="559.832" cy="374.448" r="18.7479" fill="#892A85"/>
<circle cx="528.812" cy="290.253" r="25.2244" fill="#E42325"/>
<circle cx="621.187" cy="199.24" r="36.4732" fill="#892A85"/>
<circle cx="758.219" cy="182.197" r="64.4245" fill="#2C4D9C"/>
<circle cx="590.169" cy="326.385" r="25.2244" fill="#FF8822"/>
<circle cx="319.516" cy="213.216" r="32.0418" fill="#F8BB03"/>
<circle cx="215.211" cy="182.538" r="32.0418" fill="#2C4D9C"/>
<circle cx="456.206" cy="315.818" r="43.9723" fill="#2C4D9C"/>
<circle cx="128.63" cy="271.164" r="43.6314" fill="#FF8822"/>
<circle cx="402.69" cy="169.585" r="43.6314" fill="#009F44"/>
<circle cx="497.452" cy="199.581" r="43.6314" fill="#FF8822"/>
<circle cx="195.783" cy="628.055" r="24.2018" fill="#F8BB03"/>
<circle cx="378.487" cy="603.513" r="24.2018" fill="#009F44"/>
<circle cx="691.407" cy="644.417" r="24.2018" fill="#892A85"/>
<circle cx="458.932" cy="723.499" r="22.1566" fill="#2C4D9C"/>
<circle cx="593.237" cy="902.115" r="22.1566" fill="#2C4D9C"/>
<circle cx="676.068" cy="837.009" r="25.2244" fill="#009F44"/>
<circle cx="552.673" cy="946.088" r="25.2244" fill="#E42325"/>
<circle cx="650.843" cy="748.383" r="25.2244" fill="#009F44"/>
<circle cx="520.29" cy="726.226" r="24.8836" fill="#009F44"/>
<circle cx="650.502" cy="686.003" r="24.8836" fill="#E42325"/>
<circle cx="602.44" cy="826.783" r="37.4958" fill="#E42325"/>
<circle cx="584.034" cy="745.656" r="31.3601" fill="#2C4D9C"/>
<circle cx="441.89" cy="661.461" r="24.2018" fill="#F8BB03"/>
<circle cx="452.117" cy="782.811" r="28.974" fill="#892A85"/>
<circle cx="381.216" cy="707.819" r="31.0192" fill="#E42325"/>
<circle cx="715.268" cy="779.402" r="37.8366" fill="#892A85"/>
<circle cx="381.216" cy="782.811" r="31.0192" fill="#009F44"/>
<circle cx="212.483" cy="556.132" r="44.3132" fill="#2C4D9C"/>
<circle cx="288.157" cy="661.12" r="62.0384" fill="#892A85"/>
<circle cx="305.883" cy="511.819" r="44.3132" fill="#F8BB03"/>
<circle cx="503.247" cy="857.802" r="50.7897" fill="#FF8822"/>
<circle cx="760.944" cy="690.776" r="50.7897" fill="#F8BB03"/>
<path d="M429.719 448.256C428.973 448.256 428.439 448 428.119 447.488C427.799 446.976 427.81 446.357 428.151 445.632L436.599 426.912C436.877 426.293 437.207 425.856 437.591 425.6C437.997 425.323 438.455 425.184 438.967 425.184C439.458 425.184 439.895 425.323 440.279 425.6C440.685 425.856 441.026 426.293 441.303 426.912L449.783 445.632C450.125 446.379 450.146 447.008 449.847 447.52C449.549 448.011 449.037 448.256 448.311 448.256C447.714 448.256 447.245 448.117 446.903 447.84C446.583 447.541 446.295 447.093 446.039 446.496L444.439 442.784H433.431L431.863 446.496C431.586 447.115 431.298 447.563 430.999 447.84C430.701 448.117 430.274 448.256 429.719 448.256ZM438.903 429.888L434.839 439.52H443.031L438.967 429.888H438.903ZM460.064 454.08C458.912 454.08 457.792 453.973 456.704 453.76C455.637 453.547 454.666 453.216 453.792 452.768C453.28 452.512 452.97 452.181 452.864 451.776C452.778 451.392 452.821 451.019 452.992 450.656C453.162 450.293 453.418 450.027 453.76 449.856C454.122 449.707 454.506 449.728 454.911 449.92C455.85 450.389 456.736 450.688 457.568 450.816C458.421 450.965 459.146 451.04 459.744 451.04C462.602 451.04 464.032 449.664 464.032 446.912V444.768C463.584 445.643 462.89 446.336 461.952 446.848C461.034 447.36 460.01 447.616 458.88 447.616C457.472 447.616 456.245 447.296 455.2 446.656C454.154 445.995 453.344 445.077 452.768 443.904C452.192 442.731 451.904 441.365 451.904 439.808C451.904 438.251 452.192 436.896 452.768 435.744C453.344 434.571 454.154 433.664 455.2 433.024C456.245 432.363 457.472 432.032 458.88 432.032C460.01 432.032 461.034 432.277 461.952 432.768C462.869 433.259 463.541 433.931 463.968 434.784V434.112C463.968 433.451 464.138 432.949 464.48 432.608C464.842 432.267 465.333 432.096 465.952 432.096C467.274 432.096 467.936 432.768 467.936 434.112V446.432C467.936 448.971 467.264 450.88 465.92 452.16C464.576 453.44 462.624 454.08 460.064 454.08ZM459.968 444.576C461.205 444.576 462.186 444.149 462.912 443.296C463.637 442.443 464 441.28 464 439.808C464 438.336 463.637 437.184 462.912 436.352C462.186 435.499 461.205 435.072 459.968 435.072C458.73 435.072 457.749 435.499 457.024 436.352C456.298 437.184 455.936 438.336 455.936 439.808C455.936 441.28 456.298 442.443 457.024 443.296C457.749 444.149 458.73 444.576 459.968 444.576ZM479.216 448.32C477.595 448.32 476.187 447.989 474.992 447.328C473.797 446.667 472.869 445.728 472.208 444.512C471.547 443.275 471.216 441.824 471.216 440.16C471.216 438.496 471.547 437.056 472.208 435.84C472.869 434.624 473.797 433.685 474.992 433.024C476.187 432.363 477.595 432.032 479.216 432.032C480.837 432.032 482.245 432.363 483.44 433.024C484.635 433.685 485.563 434.624 486.224 435.84C486.885 437.056 487.216 438.496 487.216 440.16C487.216 441.824 486.885 443.275 486.224 444.512C485.563 445.728 484.635 446.667 483.44 447.328C482.245 447.989 480.837 448.32 479.216 448.32ZM479.216 445.28C480.411 445.28 481.371 444.853 482.096 444C482.821 443.125 483.184 441.845 483.184 440.16C483.184 438.453 482.821 437.184 482.096 436.352C481.371 435.499 480.411 435.072 479.216 435.072C478.021 435.072 477.061 435.499 476.336 436.352C475.611 437.184 475.248 438.453 475.248 440.16C475.248 441.845 475.611 443.125 476.336 444C477.061 444.853 478.021 445.28 479.216 445.28ZM492.566 448.256C491.2 448.256 490.518 447.573 490.518 446.208V434.112C490.518 432.768 491.168 432.096 492.47 432.096C493.771 432.096 494.422 432.768 494.422 434.112V435.104C495.19 433.269 496.832 432.245 499.35 432.032C500.267 431.925 500.779 432.448 500.886 433.6C500.992 434.731 500.438 435.36 499.222 435.488L498.518 435.552C495.894 435.808 494.582 437.152 494.582 439.584V446.208C494.582 447.573 493.91 448.256 492.566 448.256ZM508.045 448.32C506.914 448.32 505.901 448.107 505.005 447.68C504.13 447.232 503.437 446.635 502.924 445.888C502.434 445.141 502.189 444.299 502.189 443.36C502.189 442.208 502.487 441.301 503.085 440.64C503.682 439.957 504.653 439.467 505.997 439.168C507.341 438.869 509.143 438.72 511.405 438.72H512.525V438.048C512.525 436.981 512.29 436.213 511.821 435.744C511.351 435.275 510.562 435.04 509.453 435.04C508.834 435.04 508.162 435.115 507.437 435.264C506.733 435.413 505.986 435.669 505.197 436.032C504.685 436.267 504.258 436.299 503.917 436.128C503.575 435.936 503.341 435.648 503.213 435.264C503.106 434.859 503.127 434.453 503.277 434.048C503.447 433.643 503.778 433.344 504.269 433.152C505.25 432.747 506.189 432.459 507.085 432.288C508.002 432.117 508.834 432.032 509.581 432.032C511.863 432.032 513.559 432.565 514.669 433.632C515.778 434.677 516.333 436.309 516.333 438.528V446.208C516.333 447.573 515.714 448.256 514.477 448.256C513.218 448.256 512.589 447.573 512.589 446.208V445.504C512.226 446.379 511.65 447.072 510.861 447.584C510.071 448.075 509.133 448.32 508.045 448.32ZM508.877 445.568C509.922 445.568 510.786 445.205 511.469 444.48C512.173 443.755 512.525 442.837 512.525 441.728V441.024H511.437C509.431 441.024 508.034 441.184 507.245 441.504C506.477 441.803 506.093 442.357 506.093 443.168C506.093 443.872 506.338 444.448 506.829 444.896C507.319 445.344 508.002 445.568 508.877 445.568ZM535.416 448.256C534.349 448.256 533.56 447.691 533.048 446.56L527.96 434.752C527.661 434.048 527.651 433.429 527.928 432.896C528.227 432.363 528.813 432.096 529.688 432.096C530.179 432.096 530.573 432.213 530.872 432.448C531.171 432.661 531.437 433.077 531.672 433.696L535.512 443.296L539.48 433.664C539.715 433.067 539.981 432.661 540.28 432.448C540.6 432.213 541.027 432.096 541.56 432.096C542.243 432.096 542.723 432.363 543 432.896C543.277 433.429 543.267 434.037 542.968 434.72L537.784 446.56C537.315 447.691 536.525 448.256 535.416 448.256ZM552.779 448.32C551.157 448.32 549.749 447.989 548.555 447.328C547.36 446.667 546.432 445.728 545.771 444.512C545.109 443.275 544.779 441.824 544.779 440.16C544.779 438.496 545.109 437.056 545.771 435.84C546.432 434.624 547.36 433.685 548.555 433.024C549.749 432.363 551.157 432.032 552.779 432.032C554.4 432.032 555.808 432.363 557.003 433.024C558.197 433.685 559.125 434.624 559.787 435.84C560.448 437.056 560.779 438.496 560.779 440.16C560.779 441.824 560.448 443.275 559.787 444.512C559.125 445.728 558.197 446.667 557.003 447.328C555.808 447.989 554.4 448.32 552.779 448.32ZM552.779 445.28C553.973 445.28 554.933 444.853 555.659 444C556.384 443.125 556.747 441.845 556.747 440.16C556.747 438.453 556.384 437.184 555.659 436.352C554.933 435.499 553.973 435.072 552.779 435.072C551.584 435.072 550.624 435.499 549.899 436.352C549.173 437.184 548.811 438.453 548.811 440.16C548.811 441.845 549.173 443.125 549.899 444C550.624 444.853 551.584 445.28 552.779 445.28ZM571.312 448.32C569.669 448.32 568.24 447.989 567.024 447.328C565.808 446.645 564.869 445.685 564.208 444.448C563.547 443.211 563.216 441.76 563.216 440.096C563.216 438.432 563.547 437.003 564.208 435.808C564.869 434.592 565.808 433.664 567.024 433.024C568.24 432.363 569.669 432.032 571.312 432.032C572.016 432.032 572.773 432.128 573.584 432.32C574.416 432.512 575.195 432.832 575.92 433.28C576.347 433.536 576.592 433.867 576.656 434.272C576.741 434.677 576.688 435.051 576.496 435.392C576.325 435.733 576.059 435.979 575.696 436.128C575.355 436.277 574.96 436.224 574.512 435.968C573.531 435.413 572.581 435.136 571.664 435.136C570.277 435.136 569.2 435.573 568.432 436.448C567.685 437.301 567.312 438.528 567.312 440.128C567.312 441.707 567.685 442.955 568.432 443.872C569.2 444.768 570.277 445.216 571.664 445.216C572.581 445.216 573.531 444.949 574.512 444.416C574.96 444.16 575.355 444.107 575.696 444.256C576.037 444.405 576.283 444.661 576.432 445.024C576.581 445.365 576.613 445.739 576.528 446.144C576.443 446.528 576.197 446.848 575.792 447.104C575.088 447.531 574.341 447.84 573.552 448.032C572.763 448.224 572.016 448.32 571.312 448.32ZM586.573 448.32C584.803 448.32 583.277 447.989 581.997 447.328C580.717 446.667 579.725 445.728 579.021 444.512C578.339 443.296 577.997 441.856 577.997 440.192C577.997 438.571 578.328 437.152 578.989 435.936C579.672 434.72 580.6 433.771 581.773 433.088C582.968 432.384 584.323 432.032 585.837 432.032C588.056 432.032 589.805 432.736 591.085 434.144C592.387 435.552 593.037 437.472 593.037 439.904C593.037 440.693 592.525 441.088 591.501 441.088H581.837C582.136 443.883 583.736 445.28 586.637 445.28C587.192 445.28 587.811 445.216 588.493 445.088C589.197 444.939 589.859 444.693 590.477 444.352C591.032 444.032 591.501 443.936 591.885 444.064C592.269 444.171 592.536 444.395 592.685 444.736C592.856 445.077 592.877 445.461 592.749 445.888C592.643 446.293 592.344 446.645 591.853 446.944C591.107 447.413 590.243 447.765 589.261 448C588.301 448.213 587.405 448.32 586.573 448.32ZM585.997 434.752C584.824 434.752 583.875 435.115 583.149 435.84C582.424 436.565 581.987 437.547 581.837 438.784H589.709C589.624 437.483 589.261 436.491 588.621 435.808C588.003 435.104 587.128 434.752 585.997 434.752ZM590.413 428.896C590.605 429.237 590.648 429.547 590.541 429.824C590.435 430.101 590.253 430.315 589.997 430.464C589.741 430.592 589.464 430.635 589.165 430.592C588.888 430.549 588.653 430.379 588.461 430.08L585.869 426.048L583.277 430.08C583.085 430.379 582.84 430.549 582.541 430.592C582.264 430.635 581.997 430.592 581.741 430.464C581.485 430.315 581.304 430.101 581.197 429.824C581.091 429.547 581.133 429.237 581.325 428.896L583.629 424.672C584.141 423.712 584.888 423.232 585.869 423.232C586.872 423.232 587.629 423.712 588.141 424.672L590.413 428.896ZM606.877 454.016C605.554 454.016 604.893 453.344 604.893 452V434.112C604.893 432.768 605.543 432.096 606.845 432.096C608.167 432.096 608.829 432.768 608.829 434.112V434.784C609.277 433.952 609.949 433.291 610.845 432.8C611.741 432.288 612.765 432.032 613.917 432.032C615.282 432.032 616.477 432.363 617.501 433.024C618.546 433.685 619.357 434.624 619.933 435.84C620.509 437.035 620.797 438.475 620.797 440.16C620.797 441.824 620.509 443.275 619.933 444.512C619.357 445.728 618.557 446.667 617.533 447.328C616.509 447.989 615.303 448.32 613.917 448.32C612.807 448.32 611.805 448.085 610.909 447.616C610.034 447.125 609.362 446.475 608.893 445.664V452C608.893 453.344 608.221 454.016 606.877 454.016ZM612.797 445.28C613.991 445.28 614.951 444.853 615.677 444C616.402 443.125 616.765 441.845 616.765 440.16C616.765 438.453 616.402 437.184 615.677 436.352C614.951 435.499 613.991 435.072 612.797 435.072C611.602 435.072 610.642 435.499 609.917 436.352C609.191 437.184 608.829 438.453 608.829 440.16C608.829 441.845 609.191 443.125 609.917 444C610.642 444.853 611.602 445.28 612.797 445.28ZM631.216 448.32C629.595 448.32 628.187 447.989 626.992 447.328C625.797 446.667 624.869 445.728 624.208 444.512C623.547 443.275 623.216 441.824 623.216 440.16C623.216 438.496 623.547 437.056 624.208 435.84C624.869 434.624 625.797 433.685 626.992 433.024C628.187 432.363 629.595 432.032 631.216 432.032C632.837 432.032 634.245 432.363 635.44 433.024C636.635 433.685 637.563 434.624 638.224 435.84C638.885 437.056 639.216 438.496 639.216 440.16C639.216 441.824 638.885 443.275 638.224 444.512C637.563 445.728 636.635 446.667 635.44 447.328C634.245 447.989 632.837 448.32 631.216 448.32ZM631.216 445.28C632.411 445.28 633.371 444.853 634.096 444C634.821 443.125 635.184 441.845 635.184 440.16C635.184 438.453 634.821 437.184 634.096 436.352C633.371 435.499 632.411 435.072 631.216 435.072C630.021 435.072 629.061 435.499 628.336 436.352C627.611 437.184 627.248 438.453 627.248 440.16C627.248 441.845 627.611 443.125 628.336 444C629.061 444.853 630.021 445.28 631.216 445.28ZM648.534 448.32C647.168 448.32 645.963 447.989 644.918 447.328C643.894 446.667 643.094 445.728 642.518 444.512C641.942 443.275 641.654 441.824 641.654 440.16C641.654 438.475 641.942 437.035 642.518 435.84C643.094 434.624 643.894 433.685 644.918 433.024C645.963 432.363 647.168 432.032 648.534 432.032C649.643 432.032 650.646 432.277 651.542 432.768C652.438 433.259 653.11 433.909 653.558 434.72V427.2C653.558 425.856 654.219 425.184 655.542 425.184C656.886 425.184 657.558 425.856 657.558 427.2V446.208C657.558 447.573 656.896 448.256 655.574 448.256C654.251 448.256 653.59 447.573 653.59 446.208V445.536C653.142 446.389 652.47 447.072 651.574 447.584C650.678 448.075 649.664 448.32 648.534 448.32ZM649.654 445.28C650.848 445.28 651.808 444.853 652.534 444C653.259 443.125 653.622 441.845 653.622 440.16C653.622 438.453 653.259 437.184 652.534 436.352C651.808 435.499 650.848 435.072 649.654 435.072C648.459 435.072 647.499 435.499 646.774 436.352C646.048 437.184 645.686 438.453 645.686 440.16C645.686 441.845 646.048 443.125 646.774 444C647.499 444.853 648.459 445.28 649.654 445.28ZM669.417 448.32C667.646 448.32 666.121 447.989 664.841 447.328C663.561 446.667 662.569 445.728 661.865 444.512C661.182 443.296 660.841 441.856 660.841 440.192C660.841 438.571 661.172 437.152 661.833 435.936C662.516 434.72 663.444 433.771 664.617 433.088C665.812 432.384 667.166 432.032 668.681 432.032C670.9 432.032 672.649 432.736 673.929 434.144C675.23 435.552 675.881 437.472 675.881 439.904C675.881 440.693 675.369 441.088 674.345 441.088H664.681C664.98 443.883 666.58 445.28 669.481 445.28C670.036 445.28 670.654 445.216 671.337 445.088C672.041 444.939 672.702 444.693 673.321 444.352C673.876 444.032 674.345 443.936 674.729 444.064C675.113 444.171 675.38 444.395 675.529 444.736C675.7 445.077 675.721 445.461 675.593 445.888C675.486 446.293 675.188 446.645 674.697 446.944C673.95 447.413 673.086 447.765 672.105 448C671.145 448.213 670.249 448.32 669.417 448.32ZM668.841 434.752C667.668 434.752 666.718 435.115 665.993 435.84C665.268 436.565 664.83 437.547 664.681 438.784H672.553C672.468 437.483 672.105 436.491 671.465 435.808C670.846 435.104 669.972 434.752 668.841 434.752ZM406.144 493.256C404.821 493.256 404.16 492.573 404.16 491.208V479.112C404.16 477.768 404.81 477.096 406.112 477.096C407.413 477.096 408.064 477.768 408.064 479.112V479.752C408.533 478.899 409.184 478.237 410.016 477.768C410.848 477.277 411.808 477.032 412.896 477.032C415.242 477.032 416.778 478.056 417.504 480.104C417.994 479.144 418.698 478.397 419.616 477.864C420.533 477.309 421.578 477.032 422.752 477.032C426.272 477.032 428.032 479.176 428.032 483.464V491.208C428.032 492.573 427.36 493.256 426.016 493.256C424.693 493.256 424.032 492.573 424.032 491.208V483.624C424.032 482.429 423.829 481.555 423.424 481C423.04 480.445 422.378 480.168 421.44 480.168C420.394 480.168 419.573 480.541 418.976 481.288C418.378 482.013 418.08 483.027 418.08 484.328V491.208C418.08 492.573 417.418 493.256 416.096 493.256C414.752 493.256 414.08 492.573 414.08 491.208V483.624C414.08 482.429 413.877 481.555 413.472 481C413.088 480.445 412.437 480.168 411.52 480.168C410.474 480.168 409.653 480.541 409.056 481.288C408.458 482.013 408.16 483.027 408.16 484.328V491.208C408.16 492.573 407.488 493.256 406.144 493.256ZM439.87 493.32C438.099 493.32 436.574 492.989 435.294 492.328C434.014 491.667 433.022 490.728 432.318 489.512C431.635 488.296 431.294 486.856 431.294 485.192C431.294 483.571 431.625 482.152 432.286 480.936C432.969 479.72 433.897 478.771 435.07 478.088C436.265 477.384 437.619 477.032 439.134 477.032C441.353 477.032 443.102 477.736 444.382 479.144C445.683 480.552 446.334 482.472 446.334 484.904C446.334 485.693 445.822 486.088 444.798 486.088H435.134C435.433 488.883 437.033 490.28 439.934 490.28C440.489 490.28 441.107 490.216 441.79 490.088C442.494 489.939 443.155 489.693 443.774 489.352C444.329 489.032 444.798 488.936 445.182 489.064C445.566 489.171 445.833 489.395 445.982 489.736C446.153 490.077 446.174 490.461 446.046 490.888C445.939 491.293 445.641 491.645 445.15 491.944C444.403 492.413 443.539 492.765 442.558 493C441.598 493.213 440.702 493.32 439.87 493.32ZM439.294 479.752C438.121 479.752 437.171 480.115 436.446 480.84C435.721 481.565 435.283 482.547 435.134 483.784H443.006C442.921 482.483 442.558 481.491 441.918 480.808C441.299 480.104 440.425 479.752 439.294 479.752ZM455.518 493.32C454.153 493.32 452.947 492.989 451.902 492.328C450.878 491.667 450.078 490.728 449.502 489.512C448.926 488.275 448.638 486.824 448.638 485.16C448.638 483.475 448.926 482.035 449.502 480.84C450.078 479.624 450.878 478.685 451.902 478.024C452.947 477.363 454.153 477.032 455.518 477.032C456.627 477.032 457.63 477.277 458.526 477.768C459.422 478.259 460.094 478.909 460.542 479.72V472.2C460.542 470.856 461.203 470.184 462.526 470.184C463.87 470.184 464.542 470.856 464.542 472.2V491.208C464.542 492.573 463.881 493.256 462.558 493.256C461.235 493.256 460.574 492.573 460.574 491.208V490.536C460.126 491.389 459.454 492.072 458.558 492.584C457.662 493.075 456.649 493.32 455.518 493.32ZM456.638 490.28C457.833 490.28 458.793 489.853 459.518 489C460.243 488.125 460.606 486.845 460.606 485.16C460.606 483.453 460.243 482.184 459.518 481.352C458.793 480.499 457.833 480.072 456.638 480.072C455.443 480.072 454.483 480.499 453.758 481.352C453.033 482.184 452.67 483.453 452.67 485.16C452.67 486.845 453.033 488.125 453.758 489C454.483 489.853 455.443 490.28 456.638 490.28ZM470.673 474.152C469.927 474.152 469.34 473.971 468.913 473.608C468.508 473.224 468.305 472.701 468.305 472.04C468.305 471.357 468.508 470.835 468.913 470.472C469.34 470.109 469.927 469.928 470.673 469.928C472.252 469.928 473.041 470.632 473.041 472.04C473.041 473.448 472.252 474.152 470.673 474.152ZM470.673 493.224C470.033 493.224 469.543 493.032 469.201 492.648C468.86 492.264 468.689 491.731 468.689 491.048V479.304C468.689 477.853 469.351 477.128 470.673 477.128C472.017 477.128 472.689 477.853 472.689 479.304V491.048C472.689 491.731 472.519 492.264 472.177 492.648C471.836 493.032 471.335 493.224 470.673 493.224ZM478.894 493.256C477.528 493.256 476.846 492.573 476.846 491.208V479.112C476.846 477.768 477.496 477.096 478.798 477.096C480.099 477.096 480.75 477.768 480.75 479.112V480.104C481.518 478.269 483.16 477.245 485.678 477.032C486.595 476.925 487.107 477.448 487.214 478.6C487.32 479.731 486.766 480.36 485.55 480.488L484.846 480.552C482.222 480.808 480.91 482.152 480.91 484.584V491.208C480.91 492.573 480.238 493.256 478.894 493.256ZM503.792 493.32C502.875 493.32 501.904 493.224 500.88 493.032C499.856 492.84 498.939 492.509 498.128 492.04C497.68 491.784 497.403 491.475 497.296 491.112C497.19 490.728 497.2 490.376 497.328 490.056C497.478 489.715 497.712 489.469 498.032 489.32C498.374 489.171 498.768 489.203 499.216 489.416C500.07 489.821 500.87 490.109 501.616 490.28C502.363 490.429 503.099 490.504 503.824 490.504C504.848 490.504 505.606 490.333 506.096 489.992C506.608 489.629 506.864 489.16 506.864 488.584C506.864 487.688 506.203 487.112 504.88 486.856L501.68 486.248C498.971 485.736 497.616 484.328 497.616 482.024C497.616 481 497.894 480.115 498.448 479.368C499.024 478.621 499.814 478.045 500.816 477.64C501.819 477.235 502.971 477.032 504.272 477.032C506.15 477.032 507.824 477.448 509.296 478.28C509.702 478.493 509.936 478.792 510 479.176C510.086 479.539 510.043 479.891 509.872 480.232C509.723 480.552 509.478 480.787 509.136 480.936C508.795 481.064 508.4 481.021 507.952 480.808C507.291 480.467 506.651 480.221 506.032 480.072C505.435 479.923 504.859 479.848 504.304 479.848C503.259 479.848 502.48 480.029 501.968 480.392C501.478 480.755 501.232 481.235 501.232 481.832C501.232 482.771 501.84 483.347 503.056 483.56L506.256 484.168C507.643 484.424 508.688 484.893 509.392 485.576C510.118 486.259 510.48 487.176 510.48 488.328C510.48 489.885 509.872 491.112 508.656 492.008C507.44 492.883 505.819 493.32 503.792 493.32ZM519.353 493.32C515.513 493.32 513.593 491.165 513.593 486.856V479.112C513.593 477.768 514.255 477.096 515.577 477.096C516.921 477.096 517.593 477.768 517.593 479.112V486.92C517.593 488.029 517.817 488.851 518.265 489.384C518.713 489.917 519.428 490.184 520.409 490.184C521.476 490.184 522.351 489.821 523.033 489.096C523.716 488.349 524.057 487.368 524.057 486.152V479.112C524.057 477.768 524.719 477.096 526.041 477.096C527.385 477.096 528.057 477.768 528.057 479.112V491.208C528.057 492.573 527.407 493.256 526.105 493.256C524.804 493.256 524.153 492.573 524.153 491.208V490.664C523.108 492.435 521.508 493.32 519.353 493.32ZM537.373 493.32C536.242 493.32 535.229 493.107 534.333 492.68C533.458 492.232 532.765 491.635 532.253 490.888C531.762 490.141 531.517 489.299 531.517 488.36C531.517 487.208 531.815 486.301 532.413 485.64C533.01 484.957 533.981 484.467 535.325 484.168C536.669 483.869 538.471 483.72 540.733 483.72H541.853V483.048C541.853 481.981 541.618 481.213 541.149 480.744C540.679 480.275 539.89 480.04 538.781 480.04C538.162 480.04 537.49 480.115 536.765 480.264C536.061 480.413 535.314 480.669 534.525 481.032C534.013 481.267 533.586 481.299 533.245 481.128C532.903 480.936 532.669 480.648 532.541 480.264C532.434 479.859 532.455 479.453 532.605 479.048C532.775 478.643 533.106 478.344 533.597 478.152C534.578 477.747 535.517 477.459 536.413 477.288C537.33 477.117 538.162 477.032 538.909 477.032C541.191 477.032 542.887 477.565 543.997 478.632C545.106 479.677 545.661 481.309 545.661 483.528V491.208C545.661 492.573 545.042 493.256 543.805 493.256C542.546 493.256 541.917 492.573 541.917 491.208V490.504C541.554 491.379 540.978 492.072 540.189 492.584C539.399 493.075 538.461 493.32 537.373 493.32ZM538.205 490.568C539.25 490.568 540.114 490.205 540.797 489.48C541.501 488.755 541.853 487.837 541.853 486.728V486.024H540.765C538.759 486.024 537.362 486.184 536.573 486.504C535.805 486.803 535.421 487.357 535.421 488.168C535.421 488.872 535.666 489.448 536.157 489.896C536.647 490.344 537.33 490.568 538.205 490.568ZM555.449 493.32C554.531 493.32 553.561 493.224 552.537 493.032C551.513 492.84 550.595 492.509 549.785 492.04C549.337 491.784 549.059 491.475 548.953 491.112C548.846 490.728 548.857 490.376 548.985 490.056C549.134 489.715 549.369 489.469 549.689 489.32C550.03 489.171 550.425 489.203 550.873 489.416C551.726 489.821 552.526 490.109 553.273 490.28C554.019 490.429 554.755 490.504 555.481 490.504C556.505 490.504 557.262 490.333 557.753 489.992C558.265 489.629 558.521 489.16 558.521 488.584C558.521 487.688 557.859 487.112 556.537 486.856L553.337 486.248C550.627 485.736 549.273 484.328 549.273 482.024C549.273 481 549.55 480.115 550.105 479.368C550.681 478.621 551.47 478.045 552.473 477.64C553.475 477.235 554.627 477.032 555.929 477.032C557.806 477.032 559.481 477.448 560.953 478.28C561.358 478.493 561.593 478.792 561.657 479.176C561.742 479.539 561.699 479.891 561.529 480.232C561.379 480.552 561.134 480.787 560.793 480.936C560.451 481.064 560.057 481.021 559.609 480.808C558.947 480.467 558.307 480.221 557.689 480.072C557.091 479.923 556.515 479.848 555.961 479.848C554.915 479.848 554.137 480.029 553.625 480.392C553.134 480.755 552.889 481.235 552.889 481.832C552.889 482.771 553.497 483.347 554.713 483.56L557.913 484.168C559.299 484.424 560.345 484.893 561.049 485.576C561.774 486.259 562.137 487.176 562.137 488.328C562.137 489.885 561.529 491.112 560.313 492.008C559.097 492.883 557.475 493.32 555.449 493.32ZM581.745 493.32C579.974 493.32 578.449 492.989 577.169 492.328C575.889 491.667 574.897 490.728 574.193 489.512C573.51 488.296 573.169 486.856 573.169 485.192C573.169 483.571 573.5 482.152 574.161 480.936C574.844 479.72 575.772 478.771 576.945 478.088C578.14 477.384 579.494 477.032 581.009 477.032C583.228 477.032 584.977 477.736 586.257 479.144C587.558 480.552 588.209 482.472 588.209 484.904C588.209 485.693 587.697 486.088 586.673 486.088H577.009C577.308 488.883 578.908 490.28 581.809 490.28C582.364 490.28 582.982 490.216 583.665 490.088C584.369 489.939 585.03 489.693 585.649 489.352C586.204 489.032 586.673 488.936 587.057 489.064C587.441 489.171 587.708 489.395 587.857 489.736C588.028 490.077 588.049 490.461 587.921 490.888C587.814 491.293 587.516 491.645 587.025 491.944C586.278 492.413 585.414 492.765 584.433 493C583.473 493.213 582.577 493.32 581.745 493.32ZM581.169 479.752C579.996 479.752 579.046 480.115 578.321 480.84C577.596 481.565 577.158 482.547 577.009 483.784H584.881C584.796 482.483 584.433 481.491 583.793 480.808C583.174 480.104 582.3 479.752 581.169 479.752ZM593.425 493.256C592.102 493.256 591.441 492.573 591.441 491.208V479.112C591.441 477.768 592.092 477.096 593.393 477.096C594.694 477.096 595.345 477.768 595.345 479.112V479.752C595.814 478.899 596.465 478.237 597.297 477.768C598.129 477.277 599.089 477.032 600.177 477.032C602.524 477.032 604.06 478.056 604.785 480.104C605.276 479.144 605.98 478.397 606.897 477.864C607.814 477.309 608.86 477.032 610.033 477.032C613.553 477.032 615.313 479.176 615.313 483.464V491.208C615.313 492.573 614.641 493.256 613.297 493.256C611.974 493.256 611.313 492.573 611.313 491.208V483.624C611.313 482.429 611.11 481.555 610.705 481C610.321 480.445 609.66 480.168 608.721 480.168C607.676 480.168 606.854 480.541 606.257 481.288C605.66 482.013 605.361 483.027 605.361 484.328V491.208C605.361 492.573 604.7 493.256 603.377 493.256C602.033 493.256 601.361 492.573 601.361 491.208V483.624C601.361 482.429 601.158 481.555 600.753 481C600.369 480.445 599.718 480.168 598.801 480.168C597.756 480.168 596.934 480.541 596.337 481.288C595.74 482.013 595.441 483.027 595.441 484.328V491.208C595.441 492.573 594.769 493.256 593.425 493.256ZM626.575 493.32C624.954 493.32 623.546 492.989 622.351 492.328C621.157 491.667 620.229 490.728 619.567 489.512C618.906 488.275 618.575 486.824 618.575 485.16C618.575 483.496 618.906 482.056 619.567 480.84C620.229 479.624 621.157 478.685 622.351 478.024C623.546 477.363 624.954 477.032 626.575 477.032C628.197 477.032 629.605 477.363 630.799 478.024C631.994 478.685 632.922 479.624 633.583 480.84C634.245 482.056 634.575 483.496 634.575 485.16C634.575 486.824 634.245 488.275 633.583 489.512C632.922 490.728 631.994 491.667 630.799 492.328C629.605 492.989 628.197 493.32 626.575 493.32ZM626.575 490.28C627.77 490.28 628.73 489.853 629.455 489C630.181 488.125 630.543 486.845 630.543 485.16C630.543 483.453 630.181 482.184 629.455 481.352C628.73 480.499 627.77 480.072 626.575 480.072C625.381 480.072 624.421 480.499 623.695 481.352C622.97 482.184 622.607 483.453 622.607 485.16C622.607 486.845 622.97 488.125 623.695 489C624.421 489.853 625.381 490.28 626.575 490.28ZM645.109 493.32C643.466 493.32 642.037 492.989 640.821 492.328C639.605 491.645 638.666 490.685 638.005 489.448C637.344 488.211 637.013 486.76 637.013 485.096C637.013 483.432 637.344 482.003 638.005 480.808C638.666 479.592 639.605 478.664 640.821 478.024C642.037 477.363 643.466 477.032 645.109 477.032C645.813 477.032 646.57 477.128 647.381 477.32C648.213 477.512 648.992 477.832 649.717 478.28C650.144 478.536 650.389 478.867 650.453 479.272C650.538 479.677 650.485 480.051 650.293 480.392C650.122 480.733 649.856 480.979 649.493 481.128C649.152 481.277 648.757 481.224 648.309 480.968C647.328 480.413 646.378 480.136 645.461 480.136C644.074 480.136 642.997 480.573 642.229 481.448C641.482 482.301 641.109 483.528 641.109 485.128C641.109 486.707 641.482 487.955 642.229 488.872C642.997 489.768 644.074 490.216 645.461 490.216C646.378 490.216 647.328 489.949 648.309 489.416C648.757 489.16 649.152 489.107 649.493 489.256C649.834 489.405 650.08 489.661 650.229 490.024C650.378 490.365 650.41 490.739 650.325 491.144C650.24 491.528 649.994 491.848 649.589 492.104C648.885 492.531 648.138 492.84 647.349 493.032C646.56 493.224 645.813 493.32 645.109 493.32ZM644.917 499.24C644.512 499.24 644.085 499.208 643.637 499.144C643.189 499.101 642.784 499.016 642.421 498.888C641.994 498.739 641.749 498.483 641.685 498.12C641.621 497.757 641.706 497.448 641.941 497.192C642.197 496.936 642.538 496.893 642.965 497.064C643.456 497.235 644 497.32 644.597 497.32C645.749 497.32 646.325 497 646.325 496.36C646.325 495.869 645.93 495.624 645.141 495.624C644.992 495.624 644.832 495.624 644.661 495.624C644.512 495.645 644.352 495.677 644.181 495.72C643.882 495.805 643.637 495.773 643.445 495.624C643.274 495.475 643.221 495.197 643.285 494.792L643.637 492.36H645.781L645.461 494.216C645.589 494.195 645.706 494.184 645.813 494.184C646.688 494.184 647.392 494.387 647.925 494.792C648.458 495.197 648.725 495.763 648.725 496.488C648.725 497.32 648.373 497.981 647.669 498.472C646.965 498.984 646.048 499.24 644.917 499.24ZM659.794 493.32C658.173 493.32 656.765 492.989 655.57 492.328C654.375 491.667 653.447 490.728 652.786 489.512C652.125 488.275 651.794 486.824 651.794 485.16C651.794 483.496 652.125 482.056 652.786 480.84C653.447 479.624 654.375 478.685 655.57 478.024C656.765 477.363 658.173 477.032 659.794 477.032C661.415 477.032 662.823 477.363 664.018 478.024C665.213 478.685 666.141 479.624 666.802 480.84C667.463 482.056 667.794 483.496 667.794 485.16C667.794 486.824 667.463 488.275 666.802 489.512C666.141 490.728 665.213 491.667 664.018 492.328C662.823 492.989 661.415 493.32 659.794 493.32ZM659.794 490.28C660.989 490.28 661.949 489.853 662.674 489C663.399 488.125 663.762 486.845 663.762 485.16C663.762 483.453 663.399 482.184 662.674 481.352C661.949 480.499 660.989 480.072 659.794 480.072C658.599 480.072 657.639 480.499 656.914 481.352C656.189 482.184 655.826 483.453 655.826 485.16C655.826 486.845 656.189 488.125 656.914 489C657.639 489.853 658.599 490.28 659.794 490.28ZM654.578 474.408C654.258 474.387 654.013 474.28 653.842 474.088C653.671 473.896 653.629 473.597 653.714 473.192C653.821 472.595 654.013 472.019 654.29 471.464C654.589 470.888 654.994 470.408 655.506 470.024C656.018 469.64 656.658 469.448 657.426 469.448C657.959 469.448 658.429 469.555 658.834 469.768C659.239 469.981 659.613 470.227 659.954 470.504C660.295 470.781 660.637 471.027 660.978 471.24C661.319 471.453 661.693 471.56 662.098 471.56C662.546 471.56 662.93 471.411 663.25 471.112C663.591 470.792 663.805 470.397 663.89 469.928C663.997 469.437 664.37 469.203 665.01 469.224C665.33 469.245 665.575 469.352 665.746 469.544C665.917 469.736 665.959 470.035 665.874 470.44C665.767 471.016 665.565 471.592 665.266 472.168C664.967 472.744 664.562 473.224 664.05 473.608C663.559 473.992 662.93 474.184 662.162 474.184C661.629 474.184 661.159 474.077 660.754 473.864C660.349 473.651 659.965 473.405 659.602 473.128C659.261 472.851 658.919 472.605 658.578 472.392C658.237 472.179 657.874 472.072 657.49 472.072C657.042 472.072 656.658 472.221 656.338 472.52C656.018 472.819 655.805 473.213 655.698 473.704C655.591 474.195 655.218 474.429 654.578 474.408ZM678.808 493.32C677.037 493.32 675.512 492.989 674.232 492.328C672.952 491.667 671.96 490.728 671.256 489.512C670.573 488.296 670.232 486.856 670.232 485.192C670.232 483.571 670.562 482.152 671.224 480.936C671.906 479.72 672.834 478.771 674.008 478.088C675.202 477.384 676.557 477.032 678.072 477.032C680.29 477.032 682.04 477.736 683.32 479.144C684.621 480.552 685.272 482.472 685.272 484.904C685.272 485.693 684.76 486.088 683.736 486.088H674.072C674.37 488.883 675.97 490.28 678.872 490.28C679.426 490.28 680.045 490.216 680.728 490.088C681.432 489.939 682.093 489.693 682.712 489.352C683.266 489.032 683.736 488.936 684.12 489.064C684.504 489.171 684.77 489.395 684.92 489.736C685.09 490.077 685.112 490.461 684.984 490.888C684.877 491.293 684.578 491.645 684.088 491.944C683.341 492.413 682.477 492.765 681.496 493C680.536 493.213 679.64 493.32 678.808 493.32ZM678.232 479.752C677.058 479.752 676.109 480.115 675.384 480.84C674.658 481.565 674.221 482.547 674.072 483.784H681.944C681.858 482.483 681.496 481.491 680.856 480.808C680.237 480.104 679.362 479.752 678.232 479.752ZM694.167 493.32C693.25 493.32 692.279 493.224 691.255 493.032C690.231 492.84 689.314 492.509 688.503 492.04C688.055 491.784 687.778 491.475 687.671 491.112C687.565 490.728 687.575 490.376 687.703 490.056C687.853 489.715 688.087 489.469 688.407 489.32C688.749 489.171 689.143 489.203 689.591 489.416C690.445 489.821 691.245 490.109 691.991 490.28C692.738 490.429 693.474 490.504 694.199 490.504C695.223 490.504 695.981 490.333 696.471 489.992C696.983 489.629 697.239 489.16 697.239 488.584C697.239 487.688 696.578 487.112 695.255 486.856L692.055 486.248C689.346 485.736 687.991 484.328 687.991 482.024C687.991 481 688.269 480.115 688.823 479.368C689.399 478.621 690.189 478.045 691.191 477.64C692.194 477.235 693.346 477.032 694.647 477.032C696.525 477.032 698.199 477.448 699.671 478.28C700.077 478.493 700.311 478.792 700.375 479.176C700.461 479.539 700.418 479.891 700.247 480.232C700.098 480.552 699.853 480.787 699.511 480.936C699.17 481.064 698.775 481.021 698.327 480.808C697.666 480.467 697.026 480.221 696.407 480.072C695.81 479.923 695.234 479.848 694.679 479.848C693.634 479.848 692.855 480.029 692.343 480.392C691.853 480.755 691.607 481.235 691.607 481.832C691.607 482.771 692.215 483.347 693.431 483.56L696.631 484.168C698.018 484.424 699.063 484.893 699.767 485.576C700.493 486.259 700.855 487.176 700.855 488.328C700.855 489.885 700.247 491.112 699.031 492.008C697.815 492.883 696.194 493.32 694.167 493.32ZM428.948 538.32C427.178 538.32 425.652 537.989 424.372 537.328C423.092 536.667 422.1 535.728 421.396 534.512C420.714 533.296 420.372 531.856 420.372 530.192C420.372 528.571 420.703 527.152 421.364 525.936C422.047 524.72 422.975 523.771 424.148 523.088C425.343 522.384 426.698 522.032 428.212 522.032C430.431 522.032 432.18 522.736 433.46 524.144C434.762 525.552 435.412 527.472 435.412 529.904C435.412 530.693 434.9 531.088 433.876 531.088H424.212C424.511 533.883 426.111 535.28 429.012 535.28C429.567 535.28 430.186 535.216 430.868 535.088C431.572 534.939 432.234 534.693 432.852 534.352C433.407 534.032 433.876 533.936 434.26 534.064C434.644 534.171 434.911 534.395 435.06 534.736C435.231 535.077 435.252 535.461 435.124 535.888C435.018 536.293 434.719 536.645 434.228 536.944C433.482 537.413 432.618 537.765 431.636 538C430.676 538.213 429.78 538.32 428.948 538.32ZM428.372 524.752C427.199 524.752 426.25 525.115 425.524 525.84C424.799 526.565 424.362 527.547 424.212 528.784H432.084C431.999 527.483 431.636 526.491 430.996 525.808C430.378 525.104 429.503 524.752 428.372 524.752ZM453.284 538.32C451.918 538.32 450.713 537.989 449.668 537.328C448.644 536.667 447.844 535.728 447.268 534.512C446.692 533.275 446.404 531.824 446.404 530.16C446.404 528.475 446.692 527.035 447.268 525.84C447.844 524.624 448.644 523.685 449.668 523.024C450.713 522.363 451.918 522.032 453.284 522.032C454.393 522.032 455.396 522.277 456.292 522.768C457.188 523.259 457.86 523.909 458.308 524.72V517.2C458.308 515.856 458.969 515.184 460.292 515.184C461.636 515.184 462.308 515.856 462.308 517.2V536.208C462.308 537.573 461.646 538.256 460.324 538.256C459.001 538.256 458.34 537.573 458.34 536.208V535.536C457.892 536.389 457.22 537.072 456.324 537.584C455.428 538.075 454.414 538.32 453.284 538.32ZM454.404 535.28C455.598 535.28 456.558 534.853 457.284 534C458.009 533.125 458.372 531.845 458.372 530.16C458.372 528.453 458.009 527.184 457.284 526.352C456.558 525.499 455.598 525.072 454.404 525.072C453.209 525.072 452.249 525.499 451.524 526.352C450.798 527.184 450.436 528.453 450.436 530.16C450.436 531.845 450.798 533.125 451.524 534C452.249 534.853 453.209 535.28 454.404 535.28ZM474.167 538.32C472.396 538.32 470.871 537.989 469.591 537.328C468.311 536.667 467.319 535.728 466.615 534.512C465.932 533.296 465.591 531.856 465.591 530.192C465.591 528.571 465.922 527.152 466.583 525.936C467.266 524.72 468.194 523.771 469.367 523.088C470.562 522.384 471.916 522.032 473.431 522.032C475.65 522.032 477.399 522.736 478.679 524.144C479.98 525.552 480.631 527.472 480.631 529.904C480.631 530.693 480.119 531.088 479.095 531.088H469.431C469.73 533.883 471.33 535.28 474.231 535.28C474.786 535.28 475.404 535.216 476.087 535.088C476.791 534.939 477.452 534.693 478.071 534.352C478.626 534.032 479.095 533.936 479.479 534.064C479.863 534.171 480.13 534.395 480.279 534.736C480.45 535.077 480.471 535.461 480.343 535.888C480.236 536.293 479.938 536.645 479.447 536.944C478.7 537.413 477.836 537.765 476.855 538C475.895 538.213 474.999 538.32 474.167 538.32ZM473.591 524.752C472.418 524.752 471.468 525.115 470.743 525.84C470.018 526.565 469.58 527.547 469.431 528.784H477.303C477.218 527.483 476.855 526.491 476.215 525.808C475.596 525.104 474.722 524.752 473.591 524.752ZM489.527 538.32C488.609 538.32 487.639 538.224 486.615 538.032C485.591 537.84 484.673 537.509 483.863 537.04C483.415 536.784 483.137 536.475 483.031 536.112C482.924 535.728 482.935 535.376 483.063 535.056C483.212 534.715 483.447 534.469 483.767 534.32C484.108 534.171 484.503 534.203 484.951 534.416C485.804 534.821 486.604 535.109 487.351 535.28C488.097 535.429 488.833 535.504 489.559 535.504C490.583 535.504 491.34 535.333 491.831 534.992C492.343 534.629 492.599 534.16 492.599 533.584C492.599 532.688 491.937 532.112 490.615 531.856L487.415 531.248C484.705 530.736 483.351 529.328 483.351 527.024C483.351 526 483.628 525.115 484.183 524.368C484.759 523.621 485.548 523.045 486.551 522.64C487.553 522.235 488.705 522.032 490.007 522.032C491.884 522.032 493.559 522.448 495.031 523.28C495.436 523.493 495.671 523.792 495.735 524.176C495.82 524.539 495.777 524.891 495.607 525.232C495.457 525.552 495.212 525.787 494.871 525.936C494.529 526.064 494.135 526.021 493.687 525.808C493.025 525.467 492.385 525.221 491.767 525.072C491.169 524.923 490.593 524.848 490.039 524.848C488.993 524.848 488.215 525.029 487.703 525.392C487.212 525.755 486.967 526.235 486.967 526.832C486.967 527.771 487.575 528.347 488.791 528.56L491.991 529.168C493.377 529.424 494.423 529.893 495.127 530.576C495.852 531.259 496.215 532.176 496.215 533.328C496.215 534.885 495.607 536.112 494.391 537.008C493.175 537.883 491.553 538.32 489.527 538.32ZM507.136 538.32C505.365 538.32 503.84 537.989 502.56 537.328C501.28 536.667 500.288 535.728 499.584 534.512C498.901 533.296 498.56 531.856 498.56 530.192C498.56 528.571 498.89 527.152 499.552 525.936C500.234 524.72 501.162 523.771 502.336 523.088C503.53 522.384 504.885 522.032 506.4 522.032C508.618 522.032 510.368 522.736 511.648 524.144C512.949 525.552 513.6 527.472 513.6 529.904C513.6 530.693 513.088 531.088 512.064 531.088H502.4C502.698 533.883 504.298 535.28 507.2 535.28C507.754 535.28 508.373 535.216 509.056 535.088C509.76 534.939 510.421 534.693 511.04 534.352C511.594 534.032 512.064 533.936 512.448 534.064C512.832 534.171 513.098 534.395 513.248 534.736C513.418 535.077 513.44 535.461 513.312 535.888C513.205 536.293 512.906 536.645 512.416 536.944C511.669 537.413 510.805 537.765 509.824 538C508.864 538.213 507.968 538.32 507.136 538.32ZM506.56 524.752C505.386 524.752 504.437 525.115 503.712 525.84C502.986 526.565 502.549 527.547 502.4 528.784H510.272C510.186 527.483 509.824 526.491 509.184 525.808C508.565 525.104 507.69 524.752 506.56 524.752ZM518.752 538.256C517.429 538.256 516.768 537.573 516.768 536.208V524.112C516.768 522.768 517.418 522.096 518.72 522.096C520.021 522.096 520.672 522.768 520.672 524.112V524.784C521.205 523.888 521.92 523.205 522.816 522.736C523.733 522.267 524.757 522.032 525.888 522.032C529.578 522.032 531.424 524.176 531.424 528.464V536.208C531.424 537.573 530.762 538.256 529.44 538.256C528.096 538.256 527.424 537.573 527.424 536.208V528.656C527.424 527.44 527.189 526.555 526.72 526C526.272 525.445 525.568 525.168 524.608 525.168C523.434 525.168 522.496 525.541 521.792 526.288C521.109 527.013 520.768 527.984 520.768 529.2V536.208C520.768 537.573 520.096 538.256 518.752 538.256ZM541.666 538.256C540.599 538.256 539.81 537.691 539.298 536.56L534.21 524.752C533.911 524.048 533.901 523.429 534.178 522.896C534.477 522.363 535.063 522.096 535.938 522.096C536.429 522.096 536.823 522.213 537.122 522.448C537.421 522.661 537.687 523.077 537.922 523.696L541.762 533.296L545.73 523.664C545.965 523.067 546.231 522.661 546.53 522.448C546.85 522.213 547.277 522.096 547.81 522.096C548.493 522.096 548.973 522.363 549.25 522.896C549.527 523.429 549.517 524.037 549.218 524.72L544.034 536.56C543.565 537.691 542.775 538.256 541.666 538.256ZM559.029 538.32C557.407 538.32 555.999 537.989 554.805 537.328C553.61 536.667 552.682 535.728 552.021 534.512C551.359 533.275 551.029 531.824 551.029 530.16C551.029 528.496 551.359 527.056 552.021 525.84C552.682 524.624 553.61 523.685 554.805 523.024C555.999 522.363 557.407 522.032 559.029 522.032C560.65 522.032 562.058 522.363 563.253 523.024C564.447 523.685 565.375 524.624 566.037 525.84C566.698 527.056 567.029 528.496 567.029 530.16C567.029 531.824 566.698 533.275 566.037 534.512C565.375 535.728 564.447 536.667 563.253 537.328C562.058 537.989 560.65 538.32 559.029 538.32ZM559.029 535.28C560.223 535.28 561.183 534.853 561.909 534C562.634 533.125 562.997 531.845 562.997 530.16C562.997 528.453 562.634 527.184 561.909 526.352C561.183 525.499 560.223 525.072 559.029 525.072C557.834 525.072 556.874 525.499 556.149 526.352C555.423 527.184 555.061 528.453 555.061 530.16C555.061 531.845 555.423 533.125 556.149 534C556.874 534.853 557.834 535.28 559.029 535.28ZM575.674 538.32C572.111 538.32 570.33 536.325 570.33 532.336V517.2C570.33 515.856 570.991 515.184 572.314 515.184C573.658 515.184 574.33 515.856 574.33 517.2V532.144C574.33 534.064 575.13 535.024 576.73 535.024C576.901 535.024 577.061 535.024 577.21 535.024C577.359 535.003 577.509 534.981 577.658 534.96C577.957 534.917 578.159 535.003 578.266 535.216C578.373 535.408 578.426 535.813 578.426 536.432C578.426 536.965 578.319 537.381 578.106 537.68C577.893 537.979 577.541 538.16 577.05 538.224C576.602 538.288 576.143 538.32 575.674 538.32ZM586.479 538.256C585.412 538.256 584.623 537.691 584.111 536.56L579.023 524.752C578.724 524.048 578.713 523.429 578.991 522.896C579.289 522.363 579.876 522.096 580.751 522.096C581.241 522.096 581.636 522.213 581.935 522.448C582.233 522.661 582.5 523.077 582.735 523.696L586.575 533.296L590.543 523.664C590.777 523.067 591.044 522.661 591.343 522.448C591.663 522.213 592.089 522.096 592.623 522.096C593.305 522.096 593.785 522.363 594.062 522.896C594.34 523.429 594.329 524.037 594.031 524.72L588.847 536.56C588.377 537.691 587.588 538.256 586.479 538.256ZM604.417 538.32C602.646 538.32 601.121 537.989 599.841 537.328C598.561 536.667 597.569 535.728 596.865 534.512C596.182 533.296 595.841 531.856 595.841 530.192C595.841 528.571 596.172 527.152 596.833 525.936C597.516 524.72 598.444 523.771 599.617 523.088C600.812 522.384 602.166 522.032 603.681 522.032C605.9 522.032 607.649 522.736 608.929 524.144C610.23 525.552 610.881 527.472 610.881 529.904C610.881 530.693 610.369 531.088 609.345 531.088H599.681C599.98 533.883 601.58 535.28 604.481 535.28C605.036 535.28 605.654 535.216 606.337 535.088C607.041 534.939 607.702 534.693 608.321 534.352C608.876 534.032 609.345 533.936 609.729 534.064C610.113 534.171 610.38 534.395 610.529 534.736C610.7 535.077 610.721 535.461 610.593 535.888C610.486 536.293 610.188 536.645 609.697 536.944C608.95 537.413 608.086 537.765 607.105 538C606.145 538.213 605.249 538.32 604.417 538.32ZM603.841 524.752C602.668 524.752 601.718 525.115 600.993 525.84C600.268 526.565 599.83 527.547 599.681 528.784H607.553C607.468 527.483 607.105 526.491 606.465 525.808C605.846 525.104 604.972 524.752 603.841 524.752ZM616.097 538.256C614.731 538.256 614.049 537.573 614.049 536.208V524.112C614.049 522.768 614.699 522.096 616.001 522.096C617.302 522.096 617.953 522.768 617.953 524.112V525.104C618.721 523.269 620.363 522.245 622.881 522.032C623.798 521.925 624.31 522.448 624.417 523.6C624.523 524.731 623.969 525.36 622.753 525.488L622.049 525.552C619.425 525.808 618.113 527.152 618.113 529.584V536.208C618.113 537.573 617.441 538.256 616.097 538.256ZM640.996 538.32C640.078 538.32 639.108 538.224 638.084 538.032C637.06 537.84 636.142 537.509 635.332 537.04C634.884 536.784 634.606 536.475 634.5 536.112C634.393 535.728 634.404 535.376 634.532 535.056C634.681 534.715 634.916 534.469 635.236 534.32C635.577 534.171 635.972 534.203 636.42 534.416C637.273 534.821 638.073 535.109 638.82 535.28C639.566 535.429 640.302 535.504 641.028 535.504C642.052 535.504 642.809 535.333 643.3 534.992C643.812 534.629 644.068 534.16 644.068 533.584C644.068 532.688 643.406 532.112 642.084 531.856L638.884 531.248C636.174 530.736 634.82 529.328 634.82 527.024C634.82 526 635.097 525.115 635.652 524.368C636.228 523.621 637.017 523.045 638.02 522.64C639.022 522.235 640.174 522.032 641.476 522.032C643.353 522.032 645.028 522.448 646.5 523.28C646.905 523.493 647.14 523.792 647.204 524.176C647.289 524.539 647.246 524.891 647.076 525.232C646.926 525.552 646.681 525.787 646.34 525.936C645.998 526.064 645.604 526.021 645.156 525.808C644.494 525.467 643.854 525.221 643.236 525.072C642.638 524.923 642.062 524.848 641.508 524.848C640.462 524.848 639.684 525.029 639.172 525.392C638.681 525.755 638.436 526.235 638.436 526.832C638.436 527.771 639.044 528.347 640.26 528.56L643.46 529.168C644.846 529.424 645.892 529.893 646.596 530.576C647.321 531.259 647.684 532.176 647.684 533.328C647.684 534.885 647.076 536.112 645.86 537.008C644.644 537.883 643.022 538.32 640.996 538.32ZM656.557 538.32C652.717 538.32 650.797 536.165 650.797 531.856V524.112C650.797 522.768 651.458 522.096 652.781 522.096C654.125 522.096 654.797 522.768 654.797 524.112V531.92C654.797 533.029 655.021 533.851 655.469 534.384C655.917 534.917 656.631 535.184 657.613 535.184C658.679 535.184 659.554 534.821 660.237 534.096C660.919 533.349 661.261 532.368 661.261 531.152V524.112C661.261 522.768 661.922 522.096 663.245 522.096C664.589 522.096 665.26 522.768 665.26 524.112V536.208C665.26 537.573 664.61 538.256 663.309 538.256C662.007 538.256 661.357 537.573 661.357 536.208V535.664C660.311 537.435 658.711 538.32 656.557 538.32ZM674.576 538.32C673.445 538.32 672.432 538.107 671.536 537.68C670.661 537.232 669.968 536.635 669.456 535.888C668.965 535.141 668.72 534.299 668.72 533.36C668.72 532.208 669.018 531.301 669.616 530.64C670.213 529.957 671.184 529.467 672.528 529.168C673.872 528.869 675.674 528.72 677.936 528.72H679.056V528.048C679.056 526.981 678.821 526.213 678.352 525.744C677.882 525.275 677.093 525.04 675.984 525.04C675.365 525.04 674.693 525.115 673.968 525.264C673.264 525.413 672.517 525.669 671.728 526.032C671.216 526.267 670.789 526.299 670.448 526.128C670.106 525.936 669.872 525.648 669.744 525.264C669.637 524.859 669.658 524.453 669.808 524.048C669.978 523.643 670.309 523.344 670.8 523.152C671.781 522.747 672.72 522.459 673.616 522.288C674.533 522.117 675.365 522.032 676.112 522.032C678.394 522.032 680.09 522.565 681.2 523.632C682.309 524.677 682.864 526.309 682.864 528.528V536.208C682.864 537.573 682.245 538.256 681.008 538.256C679.749 538.256 679.12 537.573 679.12 536.208V535.504C678.757 536.379 678.181 537.072 677.392 537.584C676.602 538.075 675.664 538.32 674.576 538.32ZM675.408 535.568C676.453 535.568 677.317 535.205 678 534.48C678.704 533.755 679.056 532.837 679.056 531.728V531.024H677.968C675.962 531.024 674.565 531.184 673.776 531.504C673.008 531.803 672.624 532.357 672.624 533.168C672.624 533.872 672.869 534.448 673.36 534.896C673.85 535.344 674.533 535.568 675.408 535.568ZM470.642 564.152C469.895 564.152 469.309 563.971 468.882 563.608C468.477 563.224 468.274 562.701 468.274 562.04C468.274 561.357 468.477 560.835 468.882 560.472C469.309 560.109 469.895 559.928 470.642 559.928C472.221 559.928 473.01 560.632 473.01 562.04C473.01 563.448 472.221 564.152 470.642 564.152ZM470.642 583.224C470.002 583.224 469.511 583.032 469.17 582.648C468.829 582.264 468.658 581.731 468.658 581.048V569.304C468.658 567.853 469.319 567.128 470.642 567.128C471.986 567.128 472.658 567.853 472.658 569.304V581.048C472.658 581.731 472.487 582.264 472.146 582.648C471.805 583.032 471.303 583.224 470.642 583.224ZM478.798 583.256C477.476 583.256 476.814 582.573 476.814 581.208V569.112C476.814 567.768 477.465 567.096 478.766 567.096C480.068 567.096 480.718 567.768 480.718 569.112V569.784C481.252 568.888 481.966 568.205 482.862 567.736C483.78 567.267 484.804 567.032 485.934 567.032C489.625 567.032 491.47 569.176 491.47 573.464V581.208C491.47 582.573 490.809 583.256 489.486 583.256C488.142 583.256 487.47 582.573 487.47 581.208V573.656C487.47 572.44 487.236 571.555 486.766 571C486.318 570.445 485.614 570.168 484.654 570.168C483.481 570.168 482.542 570.541 481.838 571.288C481.156 572.013 480.814 572.984 480.814 574.2V581.208C480.814 582.573 480.142 583.256 478.798 583.256ZM502.701 583.32C498.562 583.32 496.493 581.272 496.493 577.176V570.36H494.829C493.762 570.36 493.229 569.859 493.229 568.856C493.229 567.853 493.762 567.352 494.829 567.352H496.493V564.44C496.493 563.096 497.165 562.424 498.509 562.424C499.832 562.424 500.493 563.096 500.493 564.44V567.352H503.885C504.952 567.352 505.485 567.853 505.485 568.856C505.485 569.859 504.952 570.36 503.885 570.36H500.493V576.952C500.493 577.976 500.717 578.744 501.165 579.256C501.613 579.768 502.338 580.024 503.341 580.024C503.704 580.024 504.024 579.992 504.301 579.928C504.578 579.864 504.824 579.821 505.037 579.8C505.293 579.779 505.506 579.864 505.677 580.056C505.848 580.227 505.933 580.589 505.933 581.144C505.933 581.571 505.858 581.955 505.709 582.296C505.581 582.616 505.336 582.84 504.973 582.968C504.696 583.053 504.333 583.128 503.885 583.192C503.437 583.277 503.042 583.32 502.701 583.32ZM515.37 583.32C513.599 583.32 512.074 582.989 510.794 582.328C509.514 581.667 508.522 580.728 507.818 579.512C507.135 578.296 506.794 576.856 506.794 575.192C506.794 573.571 507.125 572.152 507.786 570.936C508.469 569.72 509.397 568.771 510.57 568.088C511.765 567.384 513.119 567.032 514.634 567.032C516.853 567.032 518.602 567.736 519.882 569.144C521.183 570.552 521.834 572.472 521.834 574.904C521.834 575.693 521.322 576.088 520.298 576.088H510.634C510.933 578.883 512.533 580.28 515.434 580.28C515.989 580.28 516.607 580.216 517.29 580.088C517.994 579.939 518.655 579.693 519.274 579.352C519.829 579.032 520.298 578.936 520.682 579.064C521.066 579.171 521.333 579.395 521.482 579.736C521.653 580.077 521.674 580.461 521.546 580.888C521.439 581.293 521.141 581.645 520.65 581.944C519.903 582.413 519.039 582.765 518.058 583C517.098 583.213 516.202 583.32 515.37 583.32ZM514.794 569.752C513.621 569.752 512.671 570.115 511.946 570.84C511.221 571.565 510.783 572.547 510.634 573.784H518.506C518.421 572.483 518.058 571.491 517.418 570.808C516.799 570.104 515.925 569.752 514.794 569.752ZM530.346 583.32C526.783 583.32 525.002 581.325 525.002 577.336V562.2C525.002 560.856 525.663 560.184 526.986 560.184C528.33 560.184 529.002 560.856 529.002 562.2V577.144C529.002 579.064 529.802 580.024 531.402 580.024C531.573 580.024 531.733 580.024 531.882 580.024C532.031 580.003 532.181 579.981 532.33 579.96C532.629 579.917 532.831 580.003 532.938 580.216C533.045 580.408 533.098 580.813 533.098 581.432C533.098 581.965 532.991 582.381 532.778 582.68C532.565 582.979 532.213 583.16 531.722 583.224C531.274 583.288 530.815 583.32 530.346 583.32ZM537.205 564.152C536.458 564.152 535.871 563.971 535.445 563.608C535.039 563.224 534.837 562.701 534.837 562.04C534.837 561.357 535.039 560.835 535.445 560.472C535.871 560.109 536.458 559.928 537.205 559.928C538.783 559.928 539.573 560.632 539.573 562.04C539.573 563.448 538.783 564.152 537.205 564.152ZM537.205 583.224C536.565 583.224 536.074 583.032 535.733 582.648C535.391 582.264 535.221 581.731 535.221 581.048V569.304C535.221 567.853 535.882 567.128 537.205 567.128C538.549 567.128 539.221 567.853 539.221 569.304V581.048C539.221 581.731 539.05 582.264 538.709 582.648C538.367 583.032 537.866 583.224 537.205 583.224ZM550.673 589.08C549.521 589.08 548.401 588.973 547.313 588.76C546.246 588.547 545.276 588.216 544.401 587.768C543.889 587.512 543.58 587.181 543.473 586.776C543.388 586.392 543.43 586.019 543.601 585.656C543.772 585.293 544.028 585.027 544.369 584.856C544.732 584.707 545.116 584.728 545.521 584.92C546.46 585.389 547.345 585.688 548.177 585.816C549.03 585.965 549.756 586.04 550.353 586.04C553.212 586.04 554.641 584.664 554.641 581.912V579.768C554.193 580.643 553.5 581.336 552.561 581.848C551.644 582.36 550.62 582.616 549.489 582.616C548.081 582.616 546.854 582.296 545.809 581.656C544.764 580.995 543.953 580.077 543.377 578.904C542.801 577.731 542.513 576.365 542.513 574.808C542.513 573.251 542.801 571.896 543.377 570.744C543.953 569.571 544.764 568.664 545.809 568.024C546.854 567.363 548.081 567.032 549.489 567.032C550.62 567.032 551.644 567.277 552.561 567.768C553.478 568.259 554.15 568.931 554.577 569.784V569.112C554.577 568.451 554.748 567.949 555.089 567.608C555.452 567.267 555.942 567.096 556.561 567.096C557.884 567.096 558.545 567.768 558.545 569.112V581.432C558.545 583.971 557.873 585.88 556.529 587.16C555.185 588.44 553.233 589.08 550.673 589.08ZM550.577 579.576C551.814 579.576 552.796 579.149 553.521 578.296C554.246 577.443 554.609 576.28 554.609 574.808C554.609 573.336 554.246 572.184 553.521 571.352C552.796 570.499 551.814 570.072 550.577 570.072C549.34 570.072 548.358 570.499 547.633 571.352C546.908 572.184 546.545 573.336 546.545 574.808C546.545 576.28 546.908 577.443 547.633 578.296C548.358 579.149 549.34 579.576 550.577 579.576ZM570.401 583.32C568.631 583.32 567.105 582.989 565.825 582.328C564.545 581.667 563.553 580.728 562.849 579.512C562.167 578.296 561.825 576.856 561.825 575.192C561.825 573.571 562.156 572.152 562.817 570.936C563.5 569.72 564.428 568.771 565.601 568.088C566.796 567.384 568.151 567.032 569.665 567.032C571.884 567.032 573.633 567.736 574.913 569.144C576.215 570.552 576.865 572.472 576.865 574.904C576.865 575.693 576.353 576.088 575.329 576.088H565.665C565.964 578.883 567.564 580.28 570.465 580.28C571.02 580.28 571.639 580.216 572.321 580.088C573.025 579.939 573.687 579.693 574.305 579.352C574.86 579.032 575.329 578.936 575.713 579.064C576.097 579.171 576.364 579.395 576.513 579.736C576.684 580.077 576.705 580.461 576.577 580.888C576.471 581.293 576.172 581.645 575.681 581.944C574.935 582.413 574.071 582.765 573.089 583C572.129 583.213 571.233 583.32 570.401 583.32ZM569.825 569.752C568.652 569.752 567.703 570.115 566.977 570.84C566.252 571.565 565.815 572.547 565.665 573.784H573.537C573.452 572.483 573.089 571.491 572.449 570.808C571.831 570.104 570.956 569.752 569.825 569.752ZM574.241 563.896C574.433 564.237 574.476 564.547 574.369 564.824C574.263 565.101 574.081 565.315 573.825 565.464C573.569 565.592 573.292 565.635 572.993 565.592C572.716 565.549 572.481 565.379 572.289 565.08L569.697 561.048L567.105 565.08C566.913 565.379 566.668 565.549 566.369 565.592C566.092 565.635 565.825 565.592 565.569 565.464C565.313 565.315 565.132 565.101 565.025 564.824C564.919 564.547 564.961 564.237 565.153 563.896L567.457 559.672C567.969 558.712 568.716 558.232 569.697 558.232C570.7 558.232 571.457 558.712 571.969 559.672L574.241 563.896ZM582.017 583.256C580.694 583.256 580.033 582.573 580.033 581.208V569.112C580.033 567.768 580.684 567.096 581.985 567.096C583.286 567.096 583.937 567.768 583.937 569.112V569.784C584.47 568.888 585.185 568.205 586.081 567.736C586.998 567.267 588.022 567.032 589.153 567.032C592.844 567.032 594.689 569.176 594.689 573.464V581.208C594.689 582.573 594.028 583.256 592.705 583.256C591.361 583.256 590.689 582.573 590.689 581.208V573.656C590.689 572.44 590.454 571.555 589.985 571C589.537 570.445 588.833 570.168 587.873 570.168C586.7 570.168 585.761 570.541 585.057 571.288C584.374 572.013 584.033 572.984 584.033 574.2V581.208C584.033 582.573 583.361 583.256 582.017 583.256ZM605.984 583.32C604.341 583.32 602.912 582.989 601.696 582.328C600.48 581.645 599.541 580.685 598.88 579.448C598.219 578.211 597.888 576.76 597.888 575.096C597.888 573.432 598.219 572.003 598.88 570.808C599.541 569.592 600.48 568.664 601.696 568.024C602.912 567.363 604.341 567.032 605.984 567.032C606.688 567.032 607.445 567.128 608.256 567.32C609.088 567.512 609.867 567.832 610.592 568.28C611.019 568.536 611.264 568.867 611.328 569.272C611.413 569.677 611.36 570.051 611.168 570.392C610.997 570.733 610.731 570.979 610.368 571.128C610.027 571.277 609.632 571.224 609.184 570.968C608.203 570.413 607.253 570.136 606.336 570.136C604.949 570.136 603.872 570.573 603.104 571.448C602.357 572.301 601.984 573.528 601.984 575.128C601.984 576.707 602.357 577.955 603.104 578.872C603.872 579.768 604.949 580.216 606.336 580.216C607.253 580.216 608.203 579.949 609.184 579.416C609.632 579.16 610.027 579.107 610.368 579.256C610.709 579.405 610.955 579.661 611.104 580.024C611.253 580.365 611.285 580.739 611.2 581.144C611.115 581.528 610.869 581.848 610.464 582.104C609.76 582.531 609.013 582.84 608.224 583.032C607.435 583.224 606.688 583.32 605.984 583.32ZM615.83 564.152C615.083 564.152 614.496 563.971 614.07 563.608C613.664 563.224 613.462 562.701 613.462 562.04C613.462 561.357 613.664 560.835 614.07 560.472C614.496 560.109 615.083 559.928 615.83 559.928C617.408 559.928 618.198 560.632 618.198 562.04C618.198 563.448 617.408 564.152 615.83 564.152ZM615.83 583.224C615.19 583.224 614.699 583.032 614.358 582.648C614.016 582.264 613.846 581.731 613.846 581.048V569.304C613.846 567.853 614.507 567.128 615.83 567.128C617.174 567.128 617.846 567.853 617.846 569.304V581.048C617.846 581.731 617.675 582.264 617.334 582.648C616.992 583.032 616.491 583.224 615.83 583.224ZM627.154 583.32C626.023 583.32 625.01 583.107 624.114 582.68C623.239 582.232 622.546 581.635 622.034 580.888C621.543 580.141 621.298 579.299 621.298 578.36C621.298 577.208 621.597 576.301 622.194 575.64C622.791 574.957 623.762 574.467 625.106 574.168C626.45 573.869 628.253 573.72 630.514 573.72H631.634V573.048C631.634 571.981 631.399 571.213 630.93 570.744C630.461 570.275 629.671 570.04 628.562 570.04C627.943 570.04 627.271 570.115 626.546 570.264C625.842 570.413 625.095 570.669 624.306 571.032C623.794 571.267 623.367 571.299 623.026 571.128C622.685 570.936 622.45 570.648 622.322 570.264C622.215 569.859 622.237 569.453 622.386 569.048C622.557 568.643 622.887 568.344 623.378 568.152C624.359 567.747 625.298 567.459 626.194 567.288C627.111 567.117 627.943 567.032 628.69 567.032C630.973 567.032 632.669 567.565 633.778 568.632C634.887 569.677 635.442 571.309 635.442 573.528V581.208C635.442 582.573 634.823 583.256 633.586 583.256C632.327 583.256 631.698 582.573 631.698 581.208V580.504C631.335 581.379 630.759 582.072 629.97 582.584C629.181 583.075 628.242 583.32 627.154 583.32ZM627.986 580.568C629.031 580.568 629.895 580.205 630.578 579.48C631.282 578.755 631.634 577.837 631.634 576.728V576.024H630.546C628.541 576.024 627.143 576.184 626.354 576.504C625.586 576.803 625.202 577.357 625.202 578.168C625.202 578.872 625.447 579.448 625.938 579.896C626.429 580.344 627.111 580.568 627.986 580.568ZM485.808 628.32C484.037 628.32 482.512 627.989 481.232 627.328C479.952 626.667 478.96 625.728 478.256 624.512C477.573 623.296 477.232 621.856 477.232 620.192C477.232 618.571 477.562 617.152 478.224 615.936C478.906 614.72 479.834 613.771 481.008 613.088C482.202 612.384 483.557 612.032 485.072 612.032C487.29 612.032 489.04 612.736 490.32 614.144C491.621 615.552 492.272 617.472 492.272 619.904C492.272 620.693 491.76 621.088 490.736 621.088H481.072C481.37 623.883 482.97 625.28 485.872 625.28C486.426 625.28 487.045 625.216 487.728 625.088C488.432 624.939 489.093 624.693 489.712 624.352C490.266 624.032 490.736 623.936 491.12 624.064C491.504 624.171 491.77 624.395 491.92 624.736C492.09 625.077 492.112 625.461 491.984 625.888C491.877 626.293 491.578 626.645 491.088 626.944C490.341 627.413 489.477 627.765 488.496 628C487.536 628.213 486.64 628.32 485.808 628.32ZM485.232 614.752C484.058 614.752 483.109 615.115 482.384 615.84C481.658 616.565 481.221 617.547 481.072 618.784H488.944C488.858 617.483 488.496 616.491 487.856 615.808C487.237 615.104 486.362 614.752 485.232 614.752ZM497.487 628.256C496.165 628.256 495.503 627.573 495.503 626.208V614.112C495.503 612.768 496.154 612.096 497.455 612.096C498.757 612.096 499.407 612.768 499.407 614.112V614.752C499.877 613.899 500.527 613.237 501.359 612.768C502.191 612.277 503.151 612.032 504.239 612.032C506.586 612.032 508.122 613.056 508.847 615.104C509.338 614.144 510.042 613.397 510.959 612.864C511.877 612.309 512.922 612.032 514.095 612.032C517.615 612.032 519.375 614.176 519.375 618.464V626.208C519.375 627.573 518.703 628.256 517.359 628.256C516.037 628.256 515.375 627.573 515.375 626.208V618.624C515.375 617.429 515.173 616.555 514.767 616C514.383 615.445 513.722 615.168 512.783 615.168C511.738 615.168 510.917 615.541 510.319 616.288C509.722 617.013 509.423 618.027 509.423 619.328V626.208C509.423 627.573 508.762 628.256 507.439 628.256C506.095 628.256 505.423 627.573 505.423 626.208V618.624C505.423 617.429 505.221 616.555 504.815 616C504.431 615.445 503.781 615.168 502.863 615.168C501.818 615.168 500.997 615.541 500.399 616.288C499.802 617.013 499.503 618.027 499.503 619.328V626.208C499.503 627.573 498.831 628.256 497.487 628.256ZM530.638 628.32C529.017 628.32 527.609 627.989 526.414 627.328C525.219 626.667 524.291 625.728 523.63 624.512C522.969 623.275 522.638 621.824 522.638 620.16C522.638 618.496 522.969 617.056 523.63 615.84C524.291 614.624 525.219 613.685 526.414 613.024C527.609 612.363 529.017 612.032 530.638 612.032C532.259 612.032 533.667 612.363 534.862 613.024C536.057 613.685 536.985 614.624 537.646 615.84C538.307 617.056 538.638 618.496 538.638 620.16C538.638 621.824 538.307 623.275 537.646 624.512C536.985 625.728 536.057 626.667 534.862 627.328C533.667 627.989 532.259 628.32 530.638 628.32ZM530.638 625.28C531.833 625.28 532.793 624.853 533.518 624C534.243 623.125 534.606 621.845 534.606 620.16C534.606 618.453 534.243 617.184 533.518 616.352C532.793 615.499 531.833 615.072 530.638 615.072C529.443 615.072 528.483 615.499 527.758 616.352C527.033 617.184 526.67 618.453 526.67 620.16C526.67 621.845 527.033 623.125 527.758 624C528.483 624.853 529.443 625.28 530.638 625.28ZM549.171 628.32C547.529 628.32 546.099 627.989 544.883 627.328C543.667 626.645 542.729 625.685 542.067 624.448C541.406 623.211 541.075 621.76 541.075 620.096C541.075 618.432 541.406 617.003 542.067 615.808C542.729 614.592 543.667 613.664 544.883 613.024C546.099 612.363 547.529 612.032 549.171 612.032C549.875 612.032 550.633 612.128 551.443 612.32C552.275 612.512 553.054 612.832 553.779 613.28C554.206 613.536 554.451 613.867 554.515 614.272C554.601 614.677 554.547 615.051 554.355 615.392C554.185 615.733 553.918 615.979 553.555 616.128C553.214 616.277 552.819 616.224 552.371 615.968C551.39 615.413 550.441 615.136 549.523 615.136C548.137 615.136 547.059 615.573 546.291 616.448C545.545 617.301 545.171 618.528 545.171 620.128C545.171 621.707 545.545 622.955 546.291 623.872C547.059 624.768 548.137 625.216 549.523 625.216C550.441 625.216 551.39 624.949 552.371 624.416C552.819 624.16 553.214 624.107 553.555 624.256C553.897 624.405 554.142 624.661 554.291 625.024C554.441 625.365 554.473 625.739 554.387 626.144C554.302 626.528 554.057 626.848 553.651 627.104C552.947 627.531 552.201 627.84 551.411 628.032C550.622 628.224 549.875 628.32 549.171 628.32ZM559.017 609.152C558.27 609.152 557.684 608.971 557.257 608.608C556.852 608.224 556.649 607.701 556.649 607.04C556.649 606.357 556.852 605.835 557.257 605.472C557.684 605.109 558.27 604.928 559.017 604.928C560.596 604.928 561.385 605.632 561.385 607.04C561.385 608.448 560.596 609.152 559.017 609.152ZM559.017 628.224C558.377 628.224 557.886 628.032 557.545 627.648C557.204 627.264 557.033 626.731 557.033 626.048V614.304C557.033 612.853 557.694 612.128 559.017 612.128C560.361 612.128 561.033 612.853 561.033 614.304V626.048C561.033 626.731 560.862 627.264 560.521 627.648C560.18 628.032 559.678 628.224 559.017 628.224ZM572.325 628.32C570.704 628.32 569.296 627.989 568.101 627.328C566.907 626.667 565.979 625.728 565.317 624.512C564.656 623.275 564.325 621.824 564.325 620.16C564.325 618.496 564.656 617.056 565.317 615.84C565.979 614.624 566.907 613.685 568.101 613.024C569.296 612.363 570.704 612.032 572.325 612.032C573.947 612.032 575.355 612.363 576.549 613.024C577.744 613.685 578.672 614.624 579.333 615.84C579.995 617.056 580.325 618.496 580.325 620.16C580.325 621.824 579.995 623.275 579.333 624.512C578.672 625.728 577.744 626.667 576.549 627.328C575.355 627.989 573.947 628.32 572.325 628.32ZM572.325 625.28C573.52 625.28 574.48 624.853 575.205 624C575.931 623.125 576.293 621.845 576.293 620.16C576.293 618.453 575.931 617.184 575.205 616.352C574.48 615.499 573.52 615.072 572.325 615.072C571.131 615.072 570.171 615.499 569.445 616.352C568.72 617.184 568.357 618.453 568.357 620.16C568.357 621.845 568.72 623.125 569.445 624C570.171 624.853 571.131 625.28 572.325 625.28ZM585.611 628.256C584.288 628.256 583.627 627.573 583.627 626.208V614.112C583.627 612.768 584.278 612.096 585.579 612.096C586.88 612.096 587.531 612.768 587.531 614.112V614.784C588.064 613.888 588.779 613.205 589.675 612.736C590.592 612.267 591.616 612.032 592.747 612.032C596.438 612.032 598.283 614.176 598.283 618.464V626.208C598.283 627.573 597.622 628.256 596.299 628.256C594.955 628.256 594.283 627.573 594.283 626.208V618.656C594.283 617.44 594.048 616.555 593.579 616C593.131 615.445 592.427 615.168 591.467 615.168C590.294 615.168 589.355 615.541 588.651 616.288C587.968 617.013 587.627 617.984 587.627 619.2V626.208C587.627 627.573 586.955 628.256 585.611 628.256ZM607.498 628.32C606.367 628.32 605.354 628.107 604.458 627.68C603.583 627.232 602.89 626.635 602.378 625.888C601.887 625.141 601.642 624.299 601.642 623.36C601.642 622.208 601.94 621.301 602.538 620.64C603.135 619.957 604.106 619.467 605.45 619.168C606.794 618.869 608.596 618.72 610.858 618.72H611.978V618.048C611.978 616.981 611.743 616.213 611.274 615.744C610.804 615.275 610.015 615.04 608.906 615.04C608.287 615.04 607.615 615.115 606.89 615.264C606.186 615.413 605.439 615.669 604.65 616.032C604.138 616.267 603.711 616.299 603.37 616.128C603.028 615.936 602.794 615.648 602.666 615.264C602.559 614.859 602.58 614.453 602.73 614.048C602.9 613.643 603.231 613.344 603.722 613.152C604.703 612.747 605.642 612.459 606.538 612.288C607.455 612.117 608.287 612.032 609.034 612.032C611.316 612.032 613.012 612.565 614.122 613.632C615.231 614.677 615.786 616.309 615.786 618.528V626.208C615.786 627.573 615.167 628.256 613.93 628.256C612.671 628.256 612.042 627.573 612.042 626.208V625.504C611.679 626.379 611.103 627.072 610.314 627.584C609.524 628.075 608.586 628.32 607.498 628.32ZM608.33 625.568C609.375 625.568 610.239 625.205 610.922 624.48C611.626 623.755 611.978 622.837 611.978 621.728V621.024H610.89C608.884 621.024 607.487 621.184 606.698 621.504C605.93 621.803 605.546 622.357 605.546 623.168C605.546 623.872 605.791 624.448 606.282 624.896C606.772 625.344 607.455 625.568 608.33 625.568ZM625.19 628.32C621.627 628.32 619.846 626.325 619.846 622.336V607.2C619.846 605.856 620.507 605.184 621.83 605.184C623.174 605.184 623.846 605.856 623.846 607.2V622.144C623.846 624.064 624.646 625.024 626.246 625.024C626.416 625.024 626.576 625.024 626.726 625.024C626.875 625.003 627.024 624.981 627.174 624.96C627.472 624.917 627.675 625.003 627.782 625.216C627.888 625.408 627.942 625.813 627.942 626.432C627.942 626.965 627.835 627.381 627.622 627.68C627.408 627.979 627.056 628.16 626.566 628.224C626.118 628.288 625.659 628.32 625.19 628.32Z" fill="#AA6F34"/>
</svg>
