<svg width="283" height="113" viewBox="0 0 283 113" fill="none" xmlns="http://www.w3.org/2000/svg">
<g filter="url(#filter0_d_4220_29619)">
<rect x="5" y="36" width="153" height="41" rx="8" fill="white"/>
<rect x="5.5" y="36.5" width="152" height="40" rx="7.5" stroke="#E0E0E0"/>
</g>
<circle cx="226.5" cy="56.5" r="56.5" fill="#F9E423"/>
<path fill-rule="evenodd" clip-rule="evenodd" d="M239.25 56.6667C239.25 55.7002 240.033 54.9167 241 54.9167H250.333C251.3 54.9167 252.083 55.7002 252.083 56.6667V75.3334C252.083 76.2999 251.3 77.0834 250.333 77.0834H245.225L242.237 80.0709C241.554 80.7543 240.446 80.7543 239.763 80.0709L236.775 77.0834H224.667C223.7 77.0834 222.917 76.2999 222.917 75.3334V66.0001C222.917 65.0336 223.7 64.2501 224.667 64.2501H239.25V56.6667ZM242.75 58.4167V66.0001C242.75 66.9666 241.966 67.7501 241 67.7501H226.417V73.5834H237.5C237.964 73.5834 238.409 73.7678 238.737 74.096L241 76.3585L243.263 74.096C243.591 73.7678 244.036 73.5834 244.5 73.5834H248.583V58.4167H242.75Z" fill="#AA6F34"/>
<path fill-rule="evenodd" clip-rule="evenodd" d="M201.917 38C201.917 37.0335 202.7 36.25 203.667 36.25H241C241.966 36.25 242.75 37.0335 242.75 38V66C242.75 66.9665 241.966 67.75 241 67.75H219.558L215.404 71.9041C214.721 72.5875 213.613 72.5875 212.929 71.9041L208.775 67.75H203.667C202.7 67.75 201.917 66.9665 201.917 66V38ZM205.417 39.75V64.25H209.5C209.964 64.25 210.409 64.4344 210.737 64.7626L214.167 68.1918L217.596 64.7626C217.924 64.4344 218.369 64.25 218.833 64.25H239.25V39.75H205.417Z" fill="#AA6F34"/>
<path fill-rule="evenodd" clip-rule="evenodd" d="M211.25 56.6667C211.25 55.7002 212.034 54.9167 213 54.9167H220C220.966 54.9167 221.75 55.7002 221.75 56.6667C221.75 57.6332 220.966 58.4167 220 58.4167H213C212.034 58.4167 211.25 57.6332 211.25 56.6667Z" fill="#AA6F34"/>
<path fill-rule="evenodd" clip-rule="evenodd" d="M211.25 47.3333C211.25 46.3668 212.034 45.5833 213 45.5833H227C227.966 45.5833 228.75 46.3668 228.75 47.3333C228.75 48.2998 227.966 49.0833 227 49.0833H213C212.034 49.0833 211.25 48.2998 211.25 47.3333Z" fill="#AA6F34"/>
<path d="M22.8666 64.14C22.1332 64.14 21.7666 63.7733 21.7666 63.04V51.02C21.7666 50.2733 22.1399 49.9 22.8866 49.9H30.0066C30.5799 49.9 30.8666 50.1733 30.8666 50.72C30.8666 51.2933 30.5799 51.58 30.0066 51.58H23.8466V56.08H29.6066C30.1799 56.08 30.4666 56.3533 30.4666 56.9C30.4666 57.4733 30.1799 57.76 29.6066 57.76H23.8466V63.04C23.8466 63.7733 23.5199 64.14 22.8666 64.14ZM35.5502 64.18C34.8702 64.18 34.2635 64.0467 33.7302 63.78C33.1968 63.5133 32.7702 63.1533 32.4502 62.7C32.1435 62.2467 31.9902 61.7333 31.9902 61.16C31.9902 60.44 32.1702 59.8733 32.5302 59.46C32.9035 59.0467 33.5102 58.7467 34.3502 58.56C35.2035 58.3733 36.3502 58.28 37.7902 58.28H38.4702V57.76C38.4702 57 38.3102 56.4533 37.9902 56.12C37.6702 55.7867 37.1435 55.62 36.4102 55.62C35.9835 55.62 35.5368 55.6733 35.0702 55.78C34.6168 55.8867 34.1435 56.0667 33.6502 56.32C33.3702 56.4533 33.1368 56.4733 32.9502 56.38C32.7768 56.2867 32.6568 56.14 32.5902 55.94C32.5235 55.74 32.5302 55.5333 32.6102 55.32C32.6902 55.1067 32.8568 54.9467 33.1102 54.84C33.6968 54.5733 34.2768 54.38 34.8502 54.26C35.4235 54.1267 35.9635 54.06 36.4702 54.06C37.8035 54.06 38.7902 54.38 39.4302 55.02C40.0702 55.6467 40.3902 56.6333 40.3902 57.98V63.12C40.3902 63.8 40.0768 64.14 39.4502 64.14C38.8102 64.14 38.4902 63.8 38.4902 63.12V62.38C38.2502 62.94 37.8768 63.38 37.3702 63.7C36.8635 64.02 36.2568 64.18 35.5502 64.18ZM35.9502 62.74C36.6702 62.74 37.2702 62.4867 37.7502 61.98C38.2302 61.4733 38.4702 60.8333 38.4702 60.06V59.52H37.8102C36.8368 59.52 36.0702 59.5667 35.5102 59.66C34.9635 59.7533 34.5702 59.9133 34.3302 60.14C34.1035 60.3533 33.9902 60.6533 33.9902 61.04C33.9902 61.5467 34.1635 61.96 34.5102 62.28C34.8568 62.5867 35.3368 62.74 35.9502 62.74ZM46.5123 64.18C45.4723 64.18 44.6857 63.88 44.1523 63.28C43.6323 62.68 43.3723 61.8 43.3723 60.64V50.78C43.3723 50.1 43.7057 49.76 44.3723 49.76C45.0523 49.76 45.3923 50.1 45.3923 50.78V60.52C45.3923 61.84 45.9257 62.5 46.9923 62.5C47.1123 62.5 47.219 62.4933 47.3123 62.48C47.4057 62.4667 47.499 62.46 47.5923 62.46C47.7523 62.4467 47.8657 62.4933 47.9323 62.6C47.999 62.6933 48.0323 62.8933 48.0323 63.2C48.0323 63.7467 47.779 64.06 47.2723 64.14C47.139 64.1533 47.0057 64.16 46.8723 64.16C46.7523 64.1733 46.6323 64.18 46.5123 64.18ZM54.168 64.18C52.568 64.18 51.308 63.7333 50.388 62.84C49.468 61.9333 49.008 60.7 49.008 59.14C49.008 58.14 49.208 57.26 49.608 56.5C50.0213 55.7267 50.588 55.1267 51.308 54.7C52.028 54.2733 52.8546 54.06 53.788 54.06C55.1346 54.06 56.1946 54.4933 56.968 55.36C57.7413 56.2133 58.128 57.3933 58.128 58.9C58.128 59.3533 57.8613 59.58 57.328 59.58H50.968C51.1146 61.6067 52.188 62.62 54.188 62.62C54.588 62.62 55.008 62.5733 55.448 62.48C55.888 62.3733 56.3146 62.1867 56.728 61.92C57.008 61.76 57.248 61.7067 57.448 61.76C57.6613 61.8 57.8146 61.9133 57.908 62.1C58.0013 62.2733 58.0146 62.4733 57.948 62.7C57.8946 62.9133 57.7413 63.1 57.488 63.26C57.0346 63.5667 56.5013 63.8 55.888 63.96C55.288 64.1067 54.7146 64.18 54.168 64.18ZM53.868 55.48C53.028 55.48 52.3613 55.74 51.868 56.26C51.3746 56.78 51.0746 57.4733 50.968 58.34H56.428C56.388 57.4333 56.148 56.7333 55.708 56.24C55.268 55.7333 54.6546 55.48 53.868 55.48ZM72.5436 64.18C71.1169 64.18 69.8969 63.8867 68.8836 63.3C67.8703 62.7133 67.0903 61.88 66.5436 60.8C66.0103 59.7067 65.7436 58.42 65.7436 56.94C65.7436 55.46 66.0103 54.18 66.5436 53.1C67.0903 52.02 67.8703 51.1867 68.8836 50.6C69.8969 50.0133 71.1169 49.72 72.5436 49.72C73.3303 49.72 74.0836 49.8267 74.8036 50.04C75.5369 50.2533 76.1703 50.56 76.7036 50.96C76.9969 51.1467 77.1636 51.3733 77.2036 51.64C77.2569 51.8933 77.2169 52.1267 77.0836 52.34C76.9636 52.54 76.7836 52.6733 76.5436 52.74C76.3036 52.8067 76.0369 52.74 75.7436 52.54C75.2903 52.2067 74.7969 51.96 74.2636 51.8C73.7436 51.64 73.1903 51.56 72.6036 51.56C71.0836 51.56 69.9236 52.0267 69.1236 52.96C68.3236 53.8933 67.9236 55.22 67.9236 56.94C67.9236 58.66 68.3236 59.9933 69.1236 60.94C69.9236 61.8733 71.0836 62.34 72.6036 62.34C73.1903 62.34 73.7503 62.26 74.2836 62.1C74.8303 61.94 75.3436 61.6867 75.8236 61.34C76.1169 61.1533 76.3769 61.0933 76.6036 61.16C76.8303 61.2133 77.0036 61.34 77.1236 61.54C77.2436 61.74 77.2836 61.9667 77.2436 62.22C77.2036 62.46 77.0636 62.6667 76.8236 62.84C76.2636 63.28 75.6103 63.6133 74.8636 63.84C74.1303 64.0667 73.3569 64.18 72.5436 64.18ZM83.2561 64.18C82.2694 64.18 81.4161 63.9733 80.6961 63.56C79.9761 63.1467 79.4161 62.5667 79.0161 61.82C78.6294 61.06 78.4361 60.16 78.4361 59.12C78.4361 58.08 78.6294 57.1867 79.0161 56.44C79.4161 55.68 79.9761 55.0933 80.6961 54.68C81.4161 54.2667 82.2694 54.06 83.2561 54.06C84.2161 54.06 85.0561 54.2667 85.7761 54.68C86.4961 55.0933 87.0561 55.68 87.4561 56.44C87.8561 57.1867 88.0561 58.08 88.0561 59.12C88.0561 60.16 87.8561 61.06 87.4561 61.82C87.0561 62.5667 86.4961 63.1467 85.7761 63.56C85.0561 63.9733 84.2161 64.18 83.2561 64.18ZM83.2561 62.62C84.0828 62.62 84.7494 62.32 85.2561 61.72C85.7628 61.12 86.0161 60.2533 86.0161 59.12C86.0161 57.9867 85.7628 57.1267 85.2561 56.54C84.7494 55.94 84.0828 55.64 83.2561 55.64C82.4161 55.64 81.7428 55.94 81.2361 56.54C80.7294 57.1267 80.4761 57.9867 80.4761 59.12C80.4761 60.2533 80.7294 61.12 81.2361 61.72C81.7428 62.32 82.4161 62.62 83.2561 62.62ZM91.5247 64.14C90.858 64.14 90.5247 63.8 90.5247 63.12V55.12C90.5247 54.44 90.8514 54.1 91.5047 54.1C92.158 54.1 92.4847 54.44 92.4847 55.12V55.86C92.818 55.2733 93.2714 54.8267 93.8447 54.52C94.4314 54.2133 95.0847 54.06 95.8047 54.06C98.1114 54.06 99.2647 55.3667 99.2647 57.98V63.12C99.2647 63.8 98.9314 64.14 98.2647 64.14C97.5847 64.14 97.2447 63.8 97.2447 63.12V58.1C97.2447 57.26 97.078 56.6467 96.7447 56.26C96.4247 55.8733 95.918 55.68 95.2247 55.68C94.4114 55.68 93.758 55.94 93.2647 56.46C92.7847 56.9667 92.5447 57.64 92.5447 58.48V63.12C92.5447 63.8 92.2047 64.14 91.5247 64.14ZM106.488 64.18C105.501 64.18 104.648 63.9733 103.928 63.56C103.208 63.1467 102.648 62.5667 102.248 61.82C101.861 61.06 101.668 60.16 101.668 59.12C101.668 58.08 101.861 57.1867 102.248 56.44C102.648 55.68 103.208 55.0933 103.928 54.68C104.648 54.2667 105.501 54.06 106.488 54.06C107.448 54.06 108.288 54.2667 109.008 54.68C109.728 55.0933 110.288 55.68 110.688 56.44C111.088 57.1867 111.288 58.08 111.288 59.12C111.288 60.16 111.088 61.06 110.688 61.82C110.288 62.5667 109.728 63.1467 109.008 63.56C108.288 63.9733 107.448 64.18 106.488 64.18ZM106.488 62.62C107.315 62.62 107.981 62.32 108.488 61.72C108.995 61.12 109.248 60.2533 109.248 59.12C109.248 57.9867 108.995 57.1267 108.488 56.54C107.981 55.94 107.315 55.64 106.488 55.64C105.648 55.64 104.975 55.94 104.468 56.54C103.961 57.1267 103.708 57.9867 103.708 59.12C103.708 60.2533 103.961 61.12 104.468 61.72C104.975 62.32 105.648 62.62 106.488 62.62ZM117.177 64.18C116.59 64.18 115.983 64.1133 115.357 63.98C114.73 63.8467 114.163 63.62 113.657 63.3C113.43 63.1667 113.29 63 113.237 62.8C113.183 62.6 113.197 62.4133 113.277 62.24C113.357 62.0667 113.483 61.9467 113.657 61.88C113.843 61.8 114.05 61.82 114.277 61.94C114.797 62.22 115.297 62.42 115.777 62.54C116.257 62.66 116.73 62.72 117.197 62.72C117.903 62.72 118.437 62.5933 118.797 62.34C119.157 62.0867 119.337 61.7467 119.337 61.32C119.337 60.9733 119.217 60.7067 118.977 60.52C118.737 60.32 118.377 60.1667 117.897 60.06L115.997 59.68C114.317 59.3333 113.477 58.4667 113.477 57.08C113.477 56.16 113.843 55.4267 114.577 54.88C115.31 54.3333 116.27 54.06 117.457 54.06C118.657 54.06 119.69 54.3533 120.557 54.94C120.77 55.0733 120.897 55.24 120.937 55.44C120.977 55.6267 120.95 55.8067 120.857 55.98C120.763 56.14 120.623 56.2533 120.437 56.32C120.263 56.3867 120.057 56.36 119.817 56.24C119.417 56 119.017 55.8267 118.617 55.72C118.217 55.6 117.83 55.54 117.457 55.54C116.763 55.54 116.237 55.6733 115.877 55.94C115.517 56.1933 115.337 56.54 115.337 56.98C115.337 57.6467 115.777 58.0733 116.657 58.26L118.557 58.64C119.423 58.8133 120.077 59.1067 120.517 59.52C120.97 59.9333 121.197 60.4933 121.197 61.2C121.197 62.1333 120.83 62.8667 120.097 63.4C119.363 63.92 118.39 64.18 117.177 64.18ZM127.944 64.18C126.944 64.18 126.078 63.9733 125.344 63.56C124.624 63.1333 124.064 62.54 123.664 61.78C123.264 61.0067 123.064 60.1 123.064 59.06C123.064 57.5133 123.504 56.2933 124.384 55.4C125.264 54.5067 126.451 54.06 127.944 54.06C128.411 54.06 128.898 54.1333 129.404 54.28C129.924 54.4133 130.404 54.64 130.844 54.96C131.058 55.0933 131.178 55.2667 131.204 55.48C131.244 55.68 131.211 55.8733 131.104 56.06C131.011 56.2333 130.871 56.3533 130.684 56.42C130.498 56.4733 130.284 56.4333 130.044 56.3C129.724 56.0733 129.398 55.9133 129.064 55.82C128.731 55.7133 128.411 55.66 128.104 55.66C127.158 55.66 126.424 55.96 125.904 56.56C125.398 57.1467 125.144 57.9867 125.144 59.08C125.144 60.1733 125.398 61.0333 125.904 61.66C126.424 62.2733 127.158 62.58 128.104 62.58C128.411 62.58 128.724 62.5333 129.044 62.44C129.378 62.3467 129.711 62.1867 130.044 61.96C130.284 61.8267 130.491 61.7933 130.664 61.86C130.851 61.9267 130.984 62.0533 131.064 62.24C131.158 62.4133 131.184 62.6067 131.144 62.82C131.118 63.02 130.998 63.1867 130.784 63.32C130.358 63.6267 129.891 63.8467 129.384 63.98C128.891 64.1133 128.411 64.18 127.944 64.18ZM137.225 64.18C136.238 64.18 135.385 63.9733 134.665 63.56C133.945 63.1467 133.385 62.5667 132.985 61.82C132.598 61.06 132.405 60.16 132.405 59.12C132.405 58.08 132.598 57.1867 132.985 56.44C133.385 55.68 133.945 55.0933 134.665 54.68C135.385 54.2667 136.238 54.06 137.225 54.06C138.185 54.06 139.025 54.2667 139.745 54.68C140.465 55.0933 141.025 55.68 141.425 56.44C141.825 57.1867 142.025 58.08 142.025 59.12C142.025 60.16 141.825 61.06 141.425 61.82C141.025 62.5667 140.465 63.1467 139.745 63.56C139.025 63.9733 138.185 64.18 137.225 64.18ZM137.225 62.62C138.052 62.62 138.718 62.32 139.225 61.72C139.732 61.12 139.985 60.2533 139.985 59.12C139.985 57.9867 139.732 57.1267 139.225 56.54C138.718 55.94 138.052 55.64 137.225 55.64C136.385 55.64 135.712 55.94 135.205 56.54C134.698 57.1267 134.445 57.9867 134.445 59.12C134.445 60.2533 134.698 61.12 135.205 61.72C135.712 62.32 136.385 62.62 137.225 62.62Z" fill="#212121"/>
<defs>
<filter id="filter0_d_4220_29619" x="0" y="35" width="163" height="51" filterUnits="userSpaceOnUse" color-interpolation-filters="sRGB">
<feFlood flood-opacity="0" result="BackgroundImageFix"/>
<feColorMatrix in="SourceAlpha" type="matrix" values="0 0 0 0 0 0 0 0 0 0 0 0 0 0 0 0 0 0 127 0" result="hardAlpha"/>
<feOffset dy="4"/>
<feGaussianBlur stdDeviation="2.5"/>
<feComposite in2="hardAlpha" operator="out"/>
<feColorMatrix type="matrix" values="0 0 0 0 0.408333 0 0 0 0 0.408333 0 0 0 0 0.408333 0 0 0 0.2 0"/>
<feBlend mode="normal" in2="BackgroundImageFix" result="effect1_dropShadow_4220_29619"/>
<feBlend mode="normal" in="SourceGraphic" in2="effect1_dropShadow_4220_29619" result="shape"/>
</filter>
</defs>
</svg>
